<?xml version="1.0" encoding="utf-8" standalone="no"?>
<!DOCTYPE svg PUBLIC "-//W3C//DTD SVG 1.1//EN"
  "http://www.w3.org/Graphics/SVG/1.1/DTD/svg11.dtd">
<!-- Created with matplotlib (https://matplotlib.org/) -->
<svg height="113.385827pt" version="1.1" viewBox="0 0 283.464567 113.385827" width="283.464567pt" xmlns="http://www.w3.org/2000/svg" xmlns:xlink="http://www.w3.org/1999/xlink">
 <defs>
  <style type="text/css">
*{stroke-linecap:butt;stroke-linejoin:round;}
  </style>
 </defs>
 <g id="figure_1">
  <g id="patch_1">
   <path d="M 0 113.385827 
L 283.464567 113.385827 
L 283.464567 0 
L 0 0 
z
" style="fill:#ffffff;"/>
  </g>
  <g id="axes_1">
   <g id="patch_2">
    <path d="M 35.433071 99.212598 
L 255.11811 99.212598 
L 255.11811 13.606299 
L 35.433071 13.606299 
z
" style="fill:#ffffff;"/>
   </g>
   <g id="matplotlib.axis_1">
    <g id="xtick_1">
     <g id="line2d_1">
      <path clip-path="url(#p24c69bdc56)" d="M 95.372149 99.212598 
L 95.372149 13.606299 
" style="fill:none;stroke:#b0b0b0;stroke-dasharray:0.8,1.32;stroke-dashoffset:0;stroke-opacity:0.5;stroke-width:0.8;"/>
     </g>
     <g id="line2d_2">
      <defs>
       <path d="M 0 0 
L 0 -3.5 
" id="mc667a17b28" style="stroke:#000000;stroke-width:0.8;"/>
      </defs>
      <g>
       <use style="stroke:#000000;stroke-width:0.8;" x="95.372149" xlink:href="#mc667a17b28" y="99.212598"/>
      </g>
     </g>
     <g id="text_1">
      <!-- $Δω_1$ -->
      <g transform="translate(84.372149 110.586192)">
       <text>
        <tspan style="font-family:DejaVu Sans;font-size:11px;font-style:book;font-weight:book;" x="0" y="-0.984375">Δ</tspan>
        <tspan style="font-family:DejaVu Sans;font-size:11px;font-style:oblique;font-weight:oblique;" x="7.524902" y="-0.984375">ω</tspan>
        <tspan style="font-family:DejaVu Sans;font-size:7.7px;font-style:book;font-weight:book;" x="16.736328" y="0.8203125">1</tspan>
       </text>
      </g>
     </g>
    </g>
    <g id="xtick_2">
     <g id="line2d_3">
      <path clip-path="url(#p24c69bdc56)" d="M 195.278939 99.212598 
L 195.278939 13.606299 
" style="fill:none;stroke:#b0b0b0;stroke-dasharray:0.8,1.32;stroke-dashoffset:0;stroke-opacity:0.5;stroke-width:0.8;"/>
     </g>
     <g id="line2d_4">
      <g>
       <use style="stroke:#000000;stroke-width:0.8;" x="195.278939" xlink:href="#mc667a17b28" y="99.212598"/>
      </g>
     </g>
     <g id="text_2">
      <!-- $Δω_2$ -->
      <g transform="translate(184.278939 110.586192)">
       <text>
        <tspan style="font-family:DejaVu Sans;font-size:11px;font-style:book;font-weight:book;" x="0" y="-0.984375">Δ</tspan>
        <tspan style="font-family:DejaVu Sans;font-size:11px;font-style:oblique;font-weight:oblique;" x="7.524902" y="-0.984375">ω</tspan>
        <tspan style="font-family:DejaVu Sans;font-size:7.7px;font-style:book;font-weight:book;" x="16.736328" y="0.8203125">2</tspan>
       </text>
      </g>
     </g>
    </g>
    <g id="text_3">
     <text style="font-family:Arial;font-size:11px;font-style:normal;font-weight:normal;text-anchor:middle;" transform="rotate(-0, 145.275591, 124.646036)" x="145.275591" y="124.646036">Frequency</text>
    </g>
   </g>
   <g id="matplotlib.axis_2">
    <g id="ytick_1">
     <g id="line2d_5">
      <path clip-path="url(#p24c69bdc56)" d="M 35.433071 86.341721 
L 255.11811 86.341721 
" style="fill:none;stroke:#b0b0b0;stroke-dasharray:0.8,1.32;stroke-dashoffset:0;stroke-opacity:0.5;stroke-width:0.8;"/>
     </g>
     <g id="line2d_6">
      <defs>
       <path d="M 0 0 
L 3.5 0 
" id="me34587e4bb" style="stroke:#000000;stroke-width:0.8;"/>
      </defs>
      <g>
       <use style="stroke:#000000;stroke-width:0.8;" x="35.433071" xlink:href="#me34587e4bb" y="86.341721"/>
      </g>
     </g>
     <g id="text_4">
      <text style="font-family:Arial;font-size:11px;font-style:normal;font-weight:normal;text-anchor:end;" transform="rotate(-0, 31.933071, 90.278518)" x="31.933071" y="90.278518">0.0</text>
     </g>
    </g>
    <g id="ytick_2">
     <g id="line2d_7">
      <path clip-path="url(#p24c69bdc56)" d="M 35.433071 56.409449 
L 255.11811 56.409449 
" style="fill:none;stroke:#b0b0b0;stroke-dasharray:0.8,1.32;stroke-dashoffset:0;stroke-opacity:0.5;stroke-width:0.8;"/>
     </g>
     <g id="line2d_8">
      <g>
       <use style="stroke:#000000;stroke-width:0.8;" x="35.433071" xlink:href="#me34587e4bb" y="56.409449"/>
      </g>
     </g>
     <g id="text_5">
      <text style="font-family:Arial;font-size:11px;font-style:normal;font-weight:normal;text-anchor:end;" transform="rotate(-0, 31.933071, 60.346246)" x="31.933071" y="60.346246">0.5</text>
     </g>
    </g>
    <g id="ytick_3">
     <g id="line2d_9">
      <path clip-path="url(#p24c69bdc56)" d="M 35.433071 26.477176 
L 255.11811 26.477176 
" style="fill:none;stroke:#b0b0b0;stroke-dasharray:0.8,1.32;stroke-dashoffset:0;stroke-opacity:0.5;stroke-width:0.8;"/>
     </g>
     <g id="line2d_10">
      <g>
       <use style="stroke:#000000;stroke-width:0.8;" x="35.433071" xlink:href="#me34587e4bb" y="26.477176"/>
      </g>
     </g>
     <g id="text_6">
      <text style="font-family:Arial;font-size:11px;font-style:normal;font-weight:normal;text-anchor:end;" transform="rotate(-0, 31.933071, 30.413973)" x="31.933071" y="30.413973">1.0</text>
     </g>
    </g>
    <g id="text_7">
     <text style="font-family:Arial;font-size:11px;font-style:normal;font-weight:normal;text-anchor:middle;" transform="rotate(-90, 10.456821, 56.409449)" x="10.456821" y="56.409449">Norm. Trans.</text>
    </g>
   </g>
   <g id="PolyCollection_1">
    <path clip-path="url(#p24c69bdc56)" d="M 87.87914 0.765354 
L 87.87914 112.053543 
L 87.979047 112.053543 
L 88.078954 112.053543 
L 88.17886 112.053543 
L 88.278767 112.053543 
L 88.378674 112.053543 
L 88.478581 112.053543 
L 88.578488 112.053543 
L 88.678394 112.053543 
L 88.778301 112.053543 
L 88.878208 112.053543 
L 88.978115 112.053543 
L 89.078021 112.053543 
L 89.177928 112.053543 
L 89.277835 112.053543 
L 89.377742 112.053543 
L 89.477649 112.053543 
L 89.577555 112.053543 
L 89.677462 112.053543 
L 89.777369 112.053543 
L 89.877276 112.053543 
L 89.977183 112.053543 
L 90.077089 112.053543 
L 90.176996 112.053543 
L 90.276903 112.053543 
L 90.37681 112.053543 
L 90.476717 112.053543 
L 90.576623 112.053543 
L 90.67653 112.053543 
L 90.776437 112.053543 
L 90.876344 112.053543 
L 90.97625 112.053543 
L 91.076157 112.053543 
L 91.176064 112.053543 
L 91.275971 112.053543 
L 91.375878 112.053543 
L 91.475784 112.053543 
L 91.575691 112.053543 
L 91.675598 112.053543 
L 91.775505 112.053543 
L 91.875412 112.053543 
L 91.975318 112.053543 
L 92.075225 112.053543 
L 92.175132 112.053543 
L 92.275039 112.053543 
L 92.374946 112.053543 
L 92.474852 112.053543 
L 92.574759 112.053543 
L 92.674666 112.053543 
L 92.774573 112.053543 
L 92.874479 112.053543 
L 92.974386 112.053543 
L 93.074293 112.053543 
L 93.1742 112.053543 
L 93.274107 112.053543 
L 93.374013 112.053543 
L 93.47392 112.053543 
L 93.573827 112.053543 
L 93.673734 112.053543 
L 93.773641 112.053543 
L 93.873547 112.053543 
L 93.973454 112.053543 
L 94.073361 112.053543 
L 94.173268 112.053543 
L 94.273175 112.053543 
L 94.373081 112.053543 
L 94.472988 112.053543 
L 94.572895 112.053543 
L 94.672802 112.053543 
L 94.772708 112.053543 
L 94.872615 112.053543 
L 94.972522 112.053543 
L 95.072429 112.053543 
L 95.172336 112.053543 
L 95.272242 112.053543 
L 95.372149 112.053543 
L 95.472056 112.053543 
L 95.571963 112.053543 
L 95.67187 112.053543 
L 95.771776 112.053543 
L 95.871683 112.053543 
L 95.97159 112.053543 
L 96.071497 112.053543 
L 96.171404 112.053543 
L 96.27131 112.053543 
L 96.371217 112.053543 
L 96.471124 112.053543 
L 96.571031 112.053543 
L 96.670937 112.053543 
L 96.770844 112.053543 
L 96.870751 112.053543 
L 96.970658 112.053543 
L 97.070565 112.053543 
L 97.170471 112.053543 
L 97.270378 112.053543 
L 97.370285 112.053543 
L 97.470192 112.053543 
L 97.570099 112.053543 
L 97.670005 112.053543 
L 97.769912 112.053543 
L 97.869819 112.053543 
L 97.969726 112.053543 
L 98.069633 112.053543 
L 98.169539 112.053543 
L 98.269446 112.053543 
L 98.369353 112.053543 
L 98.46926 112.053543 
L 98.569166 112.053543 
L 98.669073 112.053543 
L 98.76898 112.053543 
L 98.868887 112.053543 
L 98.968794 112.053543 
L 99.0687 112.053543 
L 99.168607 112.053543 
L 99.268514 112.053543 
L 99.368421 112.053543 
L 99.468328 112.053543 
L 99.568234 112.053543 
L 99.668141 112.053543 
L 99.768048 112.053543 
L 99.867955 112.053543 
L 99.967862 112.053543 
L 100.067768 112.053543 
L 100.167675 112.053543 
L 100.267582 112.053543 
L 100.367489 112.053543 
L 100.467395 112.053543 
L 100.567302 112.053543 
L 100.667209 112.053543 
L 100.767116 112.053543 
L 100.867023 112.053543 
L 100.966929 112.053543 
L 101.066836 112.053543 
L 101.166743 112.053543 
L 101.26665 112.053543 
L 101.366557 112.053543 
L 101.466463 112.053543 
L 101.56637 112.053543 
L 101.666277 112.053543 
L 101.766184 112.053543 
L 101.866091 112.053543 
L 101.965997 112.053543 
L 102.065904 112.053543 
L 102.165811 112.053543 
L 102.265718 112.053543 
L 102.365624 112.053543 
L 102.465531 112.053543 
L 102.565438 112.053543 
L 102.665345 112.053543 
L 102.765252 112.053543 
L 102.865158 112.053543 
L 102.865158 0.765354 
L 102.865158 0.765354 
L 102.765252 0.765354 
L 102.665345 0.765354 
L 102.565438 0.765354 
L 102.465531 0.765354 
L 102.365624 0.765354 
L 102.265718 0.765354 
L 102.165811 0.765354 
L 102.065904 0.765354 
L 101.965997 0.765354 
L 101.866091 0.765354 
L 101.766184 0.765354 
L 101.666277 0.765354 
L 101.56637 0.765354 
L 101.466463 0.765354 
L 101.366557 0.765354 
L 101.26665 0.765354 
L 101.166743 0.765354 
L 101.066836 0.765354 
L 100.966929 0.765354 
L 100.867023 0.765354 
L 100.767116 0.765354 
L 100.667209 0.765354 
L 100.567302 0.765354 
L 100.467395 0.765354 
L 100.367489 0.765354 
L 100.267582 0.765354 
L 100.167675 0.765354 
L 100.067768 0.765354 
L 99.967862 0.765354 
L 99.867955 0.765354 
L 99.768048 0.765354 
L 99.668141 0.765354 
L 99.568234 0.765354 
L 99.468328 0.765354 
L 99.368421 0.765354 
L 99.268514 0.765354 
L 99.168607 0.765354 
L 99.0687 0.765354 
L 98.968794 0.765354 
L 98.868887 0.765354 
L 98.76898 0.765354 
L 98.669073 0.765354 
L 98.569166 0.765354 
L 98.46926 0.765354 
L 98.369353 0.765354 
L 98.269446 0.765354 
L 98.169539 0.765354 
L 98.069633 0.765354 
L 97.969726 0.765354 
L 97.869819 0.765354 
L 97.769912 0.765354 
L 97.670005 0.765354 
L 97.570099 0.765354 
L 97.470192 0.765354 
L 97.370285 0.765354 
L 97.270378 0.765354 
L 97.170471 0.765354 
L 97.070565 0.765354 
L 96.970658 0.765354 
L 96.870751 0.765354 
L 96.770844 0.765354 
L 96.670937 0.765354 
L 96.571031 0.765354 
L 96.471124 0.765354 
L 96.371217 0.765354 
L 96.27131 0.765354 
L 96.171404 0.765354 
L 96.071497 0.765354 
L 95.97159 0.765354 
L 95.871683 0.765354 
L 95.771776 0.765354 
L 95.67187 0.765354 
L 95.571963 0.765354 
L 95.472056 0.765354 
L 95.372149 0.765354 
L 95.272242 0.765354 
L 95.172336 0.765354 
L 95.072429 0.765354 
L 94.972522 0.765354 
L 94.872615 0.765354 
L 94.772708 0.765354 
L 94.672802 0.765354 
L 94.572895 0.765354 
L 94.472988 0.765354 
L 94.373081 0.765354 
L 94.273175 0.765354 
L 94.173268 0.765354 
L 94.073361 0.765354 
L 93.973454 0.765354 
L 93.873547 0.765354 
L 93.773641 0.765354 
L 93.673734 0.765354 
L 93.573827 0.765354 
L 93.47392 0.765354 
L 93.374013 0.765354 
L 93.274107 0.765354 
L 93.1742 0.765354 
L 93.074293 0.765354 
L 92.974386 0.765354 
L 92.874479 0.765354 
L 92.774573 0.765354 
L 92.674666 0.765354 
L 92.574759 0.765354 
L 92.474852 0.765354 
L 92.374946 0.765354 
L 92.275039 0.765354 
L 92.175132 0.765354 
L 92.075225 0.765354 
L 91.975318 0.765354 
L 91.875412 0.765354 
L 91.775505 0.765354 
L 91.675598 0.765354 
L 91.575691 0.765354 
L 91.475784 0.765354 
L 91.375878 0.765354 
L 91.275971 0.765354 
L 91.176064 0.765354 
L 91.076157 0.765354 
L 90.97625 0.765354 
L 90.876344 0.765354 
L 90.776437 0.765354 
L 90.67653 0.765354 
L 90.576623 0.765354 
L 90.476717 0.765354 
L 90.37681 0.765354 
L 90.276903 0.765354 
L 90.176996 0.765354 
L 90.077089 0.765354 
L 89.977183 0.765354 
L 89.877276 0.765354 
L 89.777369 0.765354 
L 89.677462 0.765354 
L 89.577555 0.765354 
L 89.477649 0.765354 
L 89.377742 0.765354 
L 89.277835 0.765354 
L 89.177928 0.765354 
L 89.078021 0.765354 
L 88.978115 0.765354 
L 88.878208 0.765354 
L 88.778301 0.765354 
L 88.678394 0.765354 
L 88.578488 0.765354 
L 88.478581 0.765354 
L 88.378674 0.765354 
L 88.278767 0.765354 
L 88.17886 0.765354 
L 88.078954 0.765354 
L 87.979047 0.765354 
L 87.87914 0.765354 
z
" style="fill:#4b0082;fill-opacity:0.15;"/>
    <path clip-path="url(#p24c69bdc56)" d="M 192.781269 0.765354 
L 192.781269 112.053543 
L 192.881176 112.053543 
L 192.981083 112.053543 
L 193.080989 112.053543 
L 193.180896 112.053543 
L 193.280803 112.053543 
L 193.38071 112.053543 
L 193.480616 112.053543 
L 193.580523 112.053543 
L 193.68043 112.053543 
L 193.780337 112.053543 
L 193.880244 112.053543 
L 193.98015 112.053543 
L 194.080057 112.053543 
L 194.179964 112.053543 
L 194.279871 112.053543 
L 194.379778 112.053543 
L 194.479684 112.053543 
L 194.579591 112.053543 
L 194.679498 112.053543 
L 194.779405 112.053543 
L 194.879312 112.053543 
L 194.979218 112.053543 
L 195.079125 112.053543 
L 195.179032 112.053543 
L 195.278939 112.053543 
L 195.378845 112.053543 
L 195.478752 112.053543 
L 195.578659 112.053543 
L 195.678566 112.053543 
L 195.778473 112.053543 
L 195.878379 112.053543 
L 195.978286 112.053543 
L 196.078193 112.053543 
L 196.1781 112.053543 
L 196.278007 112.053543 
L 196.377913 112.053543 
L 196.47782 112.053543 
L 196.577727 112.053543 
L 196.677634 112.053543 
L 196.777541 112.053543 
L 196.877447 112.053543 
L 196.977354 112.053543 
L 197.077261 112.053543 
L 197.177168 112.053543 
L 197.277074 112.053543 
L 197.376981 112.053543 
L 197.476888 112.053543 
L 197.576795 112.053543 
L 197.676702 112.053543 
L 197.776608 112.053543 
L 197.776608 0.765354 
L 197.776608 0.765354 
L 197.676702 0.765354 
L 197.576795 0.765354 
L 197.476888 0.765354 
L 197.376981 0.765354 
L 197.277074 0.765354 
L 197.177168 0.765354 
L 197.077261 0.765354 
L 196.977354 0.765354 
L 196.877447 0.765354 
L 196.777541 0.765354 
L 196.677634 0.765354 
L 196.577727 0.765354 
L 196.47782 0.765354 
L 196.377913 0.765354 
L 196.278007 0.765354 
L 196.1781 0.765354 
L 196.078193 0.765354 
L 195.978286 0.765354 
L 195.878379 0.765354 
L 195.778473 0.765354 
L 195.678566 0.765354 
L 195.578659 0.765354 
L 195.478752 0.765354 
L 195.378845 0.765354 
L 195.278939 0.765354 
L 195.179032 0.765354 
L 195.079125 0.765354 
L 194.979218 0.765354 
L 194.879312 0.765354 
L 194.779405 0.765354 
L 194.679498 0.765354 
L 194.579591 0.765354 
L 194.479684 0.765354 
L 194.379778 0.765354 
L 194.279871 0.765354 
L 194.179964 0.765354 
L 194.080057 0.765354 
L 193.98015 0.765354 
L 193.880244 0.765354 
L 193.780337 0.765354 
L 193.68043 0.765354 
L 193.580523 0.765354 
L 193.480616 0.765354 
L 193.38071 0.765354 
L 193.280803 0.765354 
L 193.180896 0.765354 
L 193.080989 0.765354 
L 192.981083 0.765354 
L 192.881176 0.765354 
L 192.781269 0.765354 
z
" style="fill:#4b0082;fill-opacity:0.15;"/>
   </g>
   <g id="line2d_11">
    <path clip-path="url(#p24c69bdc56)" d="M 45.418754 27.811114 
L 53.111577 28.320253 
L 58.806264 28.909713 
L 63.202163 29.579184 
L 66.698901 30.326586 
L 69.596198 31.165482 
L 71.99396 32.078625 
L 74.092003 33.106079 
L 75.990232 34.287281 
L 77.688647 35.61653 
L 79.187249 37.071194 
L 80.585944 38.737674 
L 81.884733 40.625203 
L 83.183521 42.925921 
L 84.382402 45.505444 
L 85.581284 48.619828 
L 86.780165 52.370036 
L 87.979047 56.843626 
L 89.277835 62.540575 
L 91.076157 71.566148 
L 92.874479 80.390858 
L 93.773641 83.772041 
L 94.373081 85.332708 
L 94.872615 86.113855 
L 95.272242 86.368398 
L 95.571963 86.336723 
L 95.871683 86.114602 
L 96.27131 85.529983 
L 96.770844 84.364471 
L 97.470192 82.028563 
L 98.369353 78.124282 
L 100.167675 68.987603 
L 102.065904 59.81438 
L 103.464599 54.154636 
L 104.763387 49.80867 
L 106.062176 46.24633 
L 107.360964 43.341336 
L 108.659752 40.970509 
L 110.058447 38.893175 
L 111.457142 37.204791 
L 112.955744 35.732473 
L 114.554253 34.459731 
L 116.352575 33.309075 
L 118.350711 32.293963 
L 120.648567 31.379981 
L 123.34605 30.556858 
L 126.543068 29.826403 
L 130.339526 29.193802 
L 135.035145 28.642816 
L 141.029552 28.173869 
L 148.722375 27.807026 
L 158.113613 27.58816 
L 167.105224 27.590144 
L 173.399352 27.794282 
L 177.49553 28.129475 
L 180.392827 28.577726 
L 182.49087 29.116515 
L 184.089378 29.742357 
L 185.388167 30.477783 
L 186.487141 31.350021 
L 187.486209 32.447584 
L 188.38537 33.80995 
L 189.184625 35.46581 
L 189.883972 37.417425 
L 190.58332 40.047974 
L 191.282667 43.656227 
L 191.982015 48.66439 
L 192.681362 55.588949 
L 193.480616 66.250417 
L 194.779405 84.377448 
L 195.079125 86.297215 
L 195.278939 86.676576 
L 195.378845 86.580281 
L 195.578659 85.824775 
L 195.878379 83.412217 
L 196.377913 76.959436 
L 197.976422 54.427939 
L 198.67577 47.798537 
L 199.375117 43.01152 
L 200.074465 39.556313 
L 200.873719 36.725874 
L 201.672973 34.698452 
L 202.572134 33.0523 
L 203.471295 31.854649 
L 204.470363 30.874791 
L 205.669245 30.022476 
L 207.06794 29.317054 
L 208.766355 28.722336 
L 210.964305 28.208063 
L 213.861602 27.777924 
L 217.857873 27.424061 
L 223.85228 27.134055 
L 233.743053 26.903573 
L 245.132427 26.776549 
L 245.132427 26.776549 
" style="fill:none;stroke:#0000cd;stroke-linecap:square;stroke-width:1.5;"/>
   </g>
   <g id="patch_3">
    <path d="M 35.433071 99.212598 
L 35.433071 13.606299 
" style="fill:none;stroke:#000000;stroke-linecap:square;stroke-linejoin:miter;stroke-width:0.8;"/>
   </g>
   <g id="patch_4">
    <path d="M 255.11811 99.212598 
L 255.11811 13.606299 
" style="fill:none;stroke:#000000;stroke-linecap:square;stroke-linejoin:miter;stroke-width:0.8;"/>
   </g>
   <g id="patch_5">
    <path d="M 35.433071 99.212598 
L 255.11811 99.212598 
" style="fill:none;stroke:#000000;stroke-linecap:square;stroke-linejoin:miter;stroke-width:0.8;"/>
   </g>
   <g id="patch_6">
    <path d="M 35.433071 13.606299 
L 255.11811 13.606299 
" style="fill:none;stroke:#000000;stroke-linecap:square;stroke-linejoin:miter;stroke-width:0.8;"/>
   </g>
  </g>
 </g>
 <defs>
  <clipPath id="p24c69bdc56">
   <rect height="85.606299" width="219.685039" x="35.433071" y="13.606299"/>
  </clipPath>
 </defs>
</svg>
