<?xml version="1.0" encoding="utf-8" standalone="no"?>
<!DOCTYPE svg PUBLIC "-//W3C//DTD SVG 1.1//EN"
  "http://www.w3.org/Graphics/SVG/1.1/DTD/svg11.dtd">
<!-- Created with matplotlib (https://matplotlib.org/) -->
<svg height="113.385827pt" version="1.1" viewBox="0 0 453.543307 113.385827" width="453.543307pt" xmlns="http://www.w3.org/2000/svg" xmlns:xlink="http://www.w3.org/1999/xlink">
 <defs>
  <style type="text/css">
*{stroke-linecap:butt;stroke-linejoin:round;}
  </style>
 </defs>
 <g id="figure_1">
  <g id="patch_1">
   <path d="M 0 113.385827 
L 453.543307 113.385827 
L 453.543307 0 
L 0 0 
z
" style="fill:#ffffff;"/>
  </g>
  <g id="axes_1">
   <g id="patch_2">
    <path d="M 56.692913 99.212598 
L 216.463851 99.212598 
L 216.463851 13.606299 
L 56.692913 13.606299 
z
" style="fill:#ffffff;"/>
   </g>
   <g id="matplotlib.axis_1">
    <g id="xtick_1">
     <g id="line2d_1">
      <path clip-path="url(#pb19a82d646)" d="M 100.28497 99.212598 
L 100.28497 13.606299 
" style="fill:none;stroke:#b0b0b0;stroke-dasharray:0.8,1.32;stroke-dashoffset:0;stroke-opacity:0.5;stroke-width:0.8;"/>
     </g>
     <g id="line2d_2">
      <defs>
       <path d="M 0 0 
L 0 -3.5 
" id="mf162ca8f06" style="stroke:#000000;stroke-width:0.8;"/>
      </defs>
      <g>
       <use style="stroke:#000000;stroke-width:0.8;" x="100.28497" xlink:href="#mf162ca8f06" y="99.212598"/>
      </g>
     </g>
     <g id="text_1">
      <text style="font-family:Arial;font-size:11px;font-style:normal;font-weight:normal;text-anchor:middle;" transform="rotate(-0, 100.28497, 110.586192)" x="100.28497" y="110.586192">195</text>
     </g>
    </g>
    <g id="xtick_2">
     <g id="line2d_3">
      <path clip-path="url(#pb19a82d646)" d="M 172.944454 99.212598 
L 172.944454 13.606299 
" style="fill:none;stroke:#b0b0b0;stroke-dasharray:0.8,1.32;stroke-dashoffset:0;stroke-opacity:0.5;stroke-width:0.8;"/>
     </g>
     <g id="line2d_4">
      <g>
       <use style="stroke:#000000;stroke-width:0.8;" x="172.944454" xlink:href="#mf162ca8f06" y="99.212598"/>
      </g>
     </g>
     <g id="text_2">
      <text style="font-family:Arial;font-size:11px;font-style:normal;font-weight:normal;text-anchor:middle;" transform="rotate(-0, 172.944454, 110.586192)" x="172.944454" y="110.586192">205</text>
     </g>
    </g>
    <g id="text_3">
     <text style="font-family:Arial;font-size:11px;font-style:normal;font-weight:normal;text-anchor:middle;" transform="rotate(-0, 136.578382, 124.646036)" x="136.578382" y="124.646036">Frequency</text>
    </g>
   </g>
   <g id="matplotlib.axis_2">
    <g id="ytick_1">
     <g id="line2d_5">
      <path clip-path="url(#pb19a82d646)" d="M 56.692913 89.334949 
L 216.463851 89.334949 
" style="fill:none;stroke:#b0b0b0;stroke-dasharray:0.8,1.32;stroke-dashoffset:0;stroke-opacity:0.5;stroke-width:0.8;"/>
     </g>
     <g id="line2d_6">
      <defs>
       <path d="M 0 0 
L 3.5 0 
" id="mc550594ef5" style="stroke:#000000;stroke-width:0.8;"/>
      </defs>
      <g>
       <use style="stroke:#000000;stroke-width:0.8;" x="56.692913" xlink:href="#mc550594ef5" y="89.334949"/>
      </g>
     </g>
     <g id="text_4">
      <text style="font-family:Arial;font-size:11px;font-style:normal;font-weight:normal;text-anchor:end;" transform="rotate(-0, 53.192913, 93.271745)" x="53.192913" y="93.271745">0.0</text>
     </g>
    </g>
    <g id="ytick_2">
     <g id="line2d_7">
      <path clip-path="url(#pb19a82d646)" d="M 56.692913 56.409449 
L 216.463851 56.409449 
" style="fill:none;stroke:#b0b0b0;stroke-dasharray:0.8,1.32;stroke-dashoffset:0;stroke-opacity:0.5;stroke-width:0.8;"/>
     </g>
     <g id="line2d_8">
      <g>
       <use style="stroke:#000000;stroke-width:0.8;" x="56.692913" xlink:href="#mc550594ef5" y="56.409449"/>
      </g>
     </g>
     <g id="text_5">
      <text style="font-family:Arial;font-size:11px;font-style:normal;font-weight:normal;text-anchor:end;" transform="rotate(-0, 53.192913, 60.346246)" x="53.192913" y="60.346246">0.5</text>
     </g>
    </g>
    <g id="ytick_3">
     <g id="line2d_9">
      <path clip-path="url(#pb19a82d646)" d="M 56.692913 23.483949 
L 216.463851 23.483949 
" style="fill:none;stroke:#b0b0b0;stroke-dasharray:0.8,1.32;stroke-dashoffset:0;stroke-opacity:0.5;stroke-width:0.8;"/>
     </g>
     <g id="line2d_10">
      <g>
       <use style="stroke:#000000;stroke-width:0.8;" x="56.692913" xlink:href="#mc550594ef5" y="23.483949"/>
      </g>
     </g>
     <g id="text_6">
      <text style="font-family:Arial;font-size:11px;font-style:normal;font-weight:normal;text-anchor:end;" transform="rotate(-0, 53.192913, 27.420746)" x="53.192913" y="27.420746">1.0</text>
     </g>
    </g>
    <g id="text_7">
     <text style="font-family:Arial;font-size:11px;font-style:normal;font-weight:normal;text-anchor:middle;" transform="rotate(-90, 31.716663, 56.409449)" x="31.716663" y="56.409449">Norm. Trans.</text>
    </g>
   </g>
   <g id="PolyCollection_1">
    <path clip-path="url(#pb19a82d646)" d="M 93.019022 0.765354 
L 93.019022 112.053543 
L 93.091682 112.053543 
L 93.164341 112.053543 
L 93.237 112.053543 
L 93.30966 112.053543 
L 93.382319 112.053543 
L 93.454979 112.053543 
L 93.527638 112.053543 
L 93.600298 112.053543 
L 93.672957 112.053543 
L 93.745617 112.053543 
L 93.818276 112.053543 
L 93.890936 112.053543 
L 93.963595 112.053543 
L 94.036255 112.053543 
L 94.108914 112.053543 
L 94.181574 112.053543 
L 94.254233 112.053543 
L 94.326893 112.053543 
L 94.399552 112.053543 
L 94.472212 112.053543 
L 94.544871 112.053543 
L 94.617531 112.053543 
L 94.69019 112.053543 
L 94.76285 112.053543 
L 94.835509 112.053543 
L 94.908169 112.053543 
L 94.980828 112.053543 
L 95.053488 112.053543 
L 95.126147 112.053543 
L 95.198807 112.053543 
L 95.271466 112.053543 
L 95.344126 112.053543 
L 95.416785 112.053543 
L 95.489444 112.053543 
L 95.562104 112.053543 
L 95.634763 112.053543 
L 95.707423 112.053543 
L 95.780082 112.053543 
L 95.852742 112.053543 
L 95.925401 112.053543 
L 95.998061 112.053543 
L 96.07072 112.053543 
L 96.14338 112.053543 
L 96.216039 112.053543 
L 96.288699 112.053543 
L 96.361358 112.053543 
L 96.434018 112.053543 
L 96.506677 112.053543 
L 96.579337 112.053543 
L 96.651996 112.053543 
L 96.724656 112.053543 
L 96.797315 112.053543 
L 96.869975 112.053543 
L 96.942634 112.053543 
L 97.015294 112.053543 
L 97.087953 112.053543 
L 97.160613 112.053543 
L 97.233272 112.053543 
L 97.305932 112.053543 
L 97.378591 112.053543 
L 97.451251 112.053543 
L 97.52391 112.053543 
L 97.596569 112.053543 
L 97.669229 112.053543 
L 97.741888 112.053543 
L 97.814548 112.053543 
L 97.887207 112.053543 
L 97.959867 112.053543 
L 98.032526 112.053543 
L 98.105186 112.053543 
L 98.177845 112.053543 
L 98.250505 112.053543 
L 98.323164 112.053543 
L 98.395824 112.053543 
L 98.468483 112.053543 
L 98.541143 112.053543 
L 98.613802 112.053543 
L 98.686462 112.053543 
L 98.759121 112.053543 
L 98.831781 112.053543 
L 98.90444 112.053543 
L 98.9771 112.053543 
L 99.049759 112.053543 
L 99.122419 112.053543 
L 99.195078 112.053543 
L 99.267738 112.053543 
L 99.340397 112.053543 
L 99.413057 112.053543 
L 99.485716 112.053543 
L 99.558376 112.053543 
L 99.631035 112.053543 
L 99.703694 112.053543 
L 99.776354 112.053543 
L 99.849013 112.053543 
L 99.921673 112.053543 
L 99.994332 112.053543 
L 100.066992 112.053543 
L 100.139651 112.053543 
L 100.212311 112.053543 
L 100.28497 112.053543 
L 100.35763 112.053543 
L 100.430289 112.053543 
L 100.502949 112.053543 
L 100.575608 112.053543 
L 100.648268 112.053543 
L 100.720927 112.053543 
L 100.793587 112.053543 
L 100.866246 112.053543 
L 100.938906 112.053543 
L 101.011565 112.053543 
L 101.084225 112.053543 
L 101.156884 112.053543 
L 101.229544 112.053543 
L 101.302203 112.053543 
L 101.374863 112.053543 
L 101.447522 112.053543 
L 101.520182 112.053543 
L 101.592841 112.053543 
L 101.665501 112.053543 
L 101.73816 112.053543 
L 101.81082 112.053543 
L 101.883479 112.053543 
L 101.956138 112.053543 
L 102.028798 112.053543 
L 102.101457 112.053543 
L 102.174117 112.053543 
L 102.246776 112.053543 
L 102.319436 112.053543 
L 102.392095 112.053543 
L 102.464755 112.053543 
L 102.537414 112.053543 
L 102.610074 112.053543 
L 102.682733 112.053543 
L 102.755393 112.053543 
L 102.828052 112.053543 
L 102.900712 112.053543 
L 102.973371 112.053543 
L 103.046031 112.053543 
L 103.11869 112.053543 
L 103.19135 112.053543 
L 103.264009 112.053543 
L 103.336669 112.053543 
L 103.409328 112.053543 
L 103.481988 112.053543 
L 103.554647 112.053543 
L 103.627307 112.053543 
L 103.699966 112.053543 
L 103.772626 112.053543 
L 103.845285 112.053543 
L 103.917945 112.053543 
L 103.990604 112.053543 
L 104.063263 112.053543 
L 104.135923 112.053543 
L 104.208582 112.053543 
L 104.281242 112.053543 
L 104.353901 112.053543 
L 104.426561 112.053543 
L 104.49922 112.053543 
L 104.57188 112.053543 
L 104.644539 112.053543 
L 104.717199 112.053543 
L 104.789858 112.053543 
L 104.862518 112.053543 
L 104.935177 112.053543 
L 105.007837 112.053543 
L 105.080496 112.053543 
L 105.153156 112.053543 
L 105.225815 112.053543 
L 105.298475 112.053543 
L 105.371134 112.053543 
L 105.443794 112.053543 
L 105.516453 112.053543 
L 105.589113 112.053543 
L 105.661772 112.053543 
L 105.734432 112.053543 
L 105.807091 112.053543 
L 105.879751 112.053543 
L 105.95241 112.053543 
L 106.02507 112.053543 
L 106.097729 112.053543 
L 106.170389 112.053543 
L 106.243048 112.053543 
L 106.315707 112.053543 
L 106.388367 112.053543 
L 106.461026 112.053543 
L 106.533686 112.053543 
L 106.606345 112.053543 
L 106.679005 112.053543 
L 106.751664 112.053543 
L 106.824324 112.053543 
L 106.896983 112.053543 
L 106.969643 112.053543 
L 107.042302 112.053543 
L 107.114962 112.053543 
L 107.187621 112.053543 
L 107.260281 112.053543 
L 107.33294 112.053543 
L 107.4056 112.053543 
L 107.478259 112.053543 
L 107.550919 112.053543 
L 107.550919 0.765354 
L 107.550919 0.765354 
L 107.478259 0.765354 
L 107.4056 0.765354 
L 107.33294 0.765354 
L 107.260281 0.765354 
L 107.187621 0.765354 
L 107.114962 0.765354 
L 107.042302 0.765354 
L 106.969643 0.765354 
L 106.896983 0.765354 
L 106.824324 0.765354 
L 106.751664 0.765354 
L 106.679005 0.765354 
L 106.606345 0.765354 
L 106.533686 0.765354 
L 106.461026 0.765354 
L 106.388367 0.765354 
L 106.315707 0.765354 
L 106.243048 0.765354 
L 106.170389 0.765354 
L 106.097729 0.765354 
L 106.02507 0.765354 
L 105.95241 0.765354 
L 105.879751 0.765354 
L 105.807091 0.765354 
L 105.734432 0.765354 
L 105.661772 0.765354 
L 105.589113 0.765354 
L 105.516453 0.765354 
L 105.443794 0.765354 
L 105.371134 0.765354 
L 105.298475 0.765354 
L 105.225815 0.765354 
L 105.153156 0.765354 
L 105.080496 0.765354 
L 105.007837 0.765354 
L 104.935177 0.765354 
L 104.862518 0.765354 
L 104.789858 0.765354 
L 104.717199 0.765354 
L 104.644539 0.765354 
L 104.57188 0.765354 
L 104.49922 0.765354 
L 104.426561 0.765354 
L 104.353901 0.765354 
L 104.281242 0.765354 
L 104.208582 0.765354 
L 104.135923 0.765354 
L 104.063263 0.765354 
L 103.990604 0.765354 
L 103.917945 0.765354 
L 103.845285 0.765354 
L 103.772626 0.765354 
L 103.699966 0.765354 
L 103.627307 0.765354 
L 103.554647 0.765354 
L 103.481988 0.765354 
L 103.409328 0.765354 
L 103.336669 0.765354 
L 103.264009 0.765354 
L 103.19135 0.765354 
L 103.11869 0.765354 
L 103.046031 0.765354 
L 102.973371 0.765354 
L 102.900712 0.765354 
L 102.828052 0.765354 
L 102.755393 0.765354 
L 102.682733 0.765354 
L 102.610074 0.765354 
L 102.537414 0.765354 
L 102.464755 0.765354 
L 102.392095 0.765354 
L 102.319436 0.765354 
L 102.246776 0.765354 
L 102.174117 0.765354 
L 102.101457 0.765354 
L 102.028798 0.765354 
L 101.956138 0.765354 
L 101.883479 0.765354 
L 101.81082 0.765354 
L 101.73816 0.765354 
L 101.665501 0.765354 
L 101.592841 0.765354 
L 101.520182 0.765354 
L 101.447522 0.765354 
L 101.374863 0.765354 
L 101.302203 0.765354 
L 101.229544 0.765354 
L 101.156884 0.765354 
L 101.084225 0.765354 
L 101.011565 0.765354 
L 100.938906 0.765354 
L 100.866246 0.765354 
L 100.793587 0.765354 
L 100.720927 0.765354 
L 100.648268 0.765354 
L 100.575608 0.765354 
L 100.502949 0.765354 
L 100.430289 0.765354 
L 100.35763 0.765354 
L 100.28497 0.765354 
L 100.212311 0.765354 
L 100.139651 0.765354 
L 100.066992 0.765354 
L 99.994332 0.765354 
L 99.921673 0.765354 
L 99.849013 0.765354 
L 99.776354 0.765354 
L 99.703694 0.765354 
L 99.631035 0.765354 
L 99.558376 0.765354 
L 99.485716 0.765354 
L 99.413057 0.765354 
L 99.340397 0.765354 
L 99.267738 0.765354 
L 99.195078 0.765354 
L 99.122419 0.765354 
L 99.049759 0.765354 
L 98.9771 0.765354 
L 98.90444 0.765354 
L 98.831781 0.765354 
L 98.759121 0.765354 
L 98.686462 0.765354 
L 98.613802 0.765354 
L 98.541143 0.765354 
L 98.468483 0.765354 
L 98.395824 0.765354 
L 98.323164 0.765354 
L 98.250505 0.765354 
L 98.177845 0.765354 
L 98.105186 0.765354 
L 98.032526 0.765354 
L 97.959867 0.765354 
L 97.887207 0.765354 
L 97.814548 0.765354 
L 97.741888 0.765354 
L 97.669229 0.765354 
L 97.596569 0.765354 
L 97.52391 0.765354 
L 97.451251 0.765354 
L 97.378591 0.765354 
L 97.305932 0.765354 
L 97.233272 0.765354 
L 97.160613 0.765354 
L 97.087953 0.765354 
L 97.015294 0.765354 
L 96.942634 0.765354 
L 96.869975 0.765354 
L 96.797315 0.765354 
L 96.724656 0.765354 
L 96.651996 0.765354 
L 96.579337 0.765354 
L 96.506677 0.765354 
L 96.434018 0.765354 
L 96.361358 0.765354 
L 96.288699 0.765354 
L 96.216039 0.765354 
L 96.14338 0.765354 
L 96.07072 0.765354 
L 95.998061 0.765354 
L 95.925401 0.765354 
L 95.852742 0.765354 
L 95.780082 0.765354 
L 95.707423 0.765354 
L 95.634763 0.765354 
L 95.562104 0.765354 
L 95.489444 0.765354 
L 95.416785 0.765354 
L 95.344126 0.765354 
L 95.271466 0.765354 
L 95.198807 0.765354 
L 95.126147 0.765354 
L 95.053488 0.765354 
L 94.980828 0.765354 
L 94.908169 0.765354 
L 94.835509 0.765354 
L 94.76285 0.765354 
L 94.69019 0.765354 
L 94.617531 0.765354 
L 94.544871 0.765354 
L 94.472212 0.765354 
L 94.399552 0.765354 
L 94.326893 0.765354 
L 94.254233 0.765354 
L 94.181574 0.765354 
L 94.108914 0.765354 
L 94.036255 0.765354 
L 93.963595 0.765354 
L 93.890936 0.765354 
L 93.818276 0.765354 
L 93.745617 0.765354 
L 93.672957 0.765354 
L 93.600298 0.765354 
L 93.527638 0.765354 
L 93.454979 0.765354 
L 93.382319 0.765354 
L 93.30966 0.765354 
L 93.237 0.765354 
L 93.164341 0.765354 
L 93.091682 0.765354 
L 93.019022 0.765354 
z
" style="fill:#808080;fill-opacity:0.15;"/>
    <path clip-path="url(#pb19a82d646)" d="M 171.127967 0.765354 
L 171.127967 112.053543 
L 171.200626 112.053543 
L 171.273286 112.053543 
L 171.345945 112.053543 
L 171.418604 112.053543 
L 171.491264 112.053543 
L 171.563923 112.053543 
L 171.636583 112.053543 
L 171.709242 112.053543 
L 171.781902 112.053543 
L 171.854561 112.053543 
L 171.927221 112.053543 
L 171.99988 112.053543 
L 172.07254 112.053543 
L 172.145199 112.053543 
L 172.217859 112.053543 
L 172.290518 112.053543 
L 172.363178 112.053543 
L 172.435837 112.053543 
L 172.508497 112.053543 
L 172.581156 112.053543 
L 172.653816 112.053543 
L 172.726475 112.053543 
L 172.799135 112.053543 
L 172.871794 112.053543 
L 172.944454 112.053543 
L 173.017113 112.053543 
L 173.089773 112.053543 
L 173.162432 112.053543 
L 173.235092 112.053543 
L 173.307751 112.053543 
L 173.380411 112.053543 
L 173.45307 112.053543 
L 173.525729 112.053543 
L 173.598389 112.053543 
L 173.671048 112.053543 
L 173.743708 112.053543 
L 173.816367 112.053543 
L 173.889027 112.053543 
L 173.961686 112.053543 
L 174.034346 112.053543 
L 174.107005 112.053543 
L 174.179665 112.053543 
L 174.252324 112.053543 
L 174.324984 112.053543 
L 174.397643 112.053543 
L 174.470303 112.053543 
L 174.542962 112.053543 
L 174.615622 112.053543 
L 174.688281 112.053543 
L 174.760941 112.053543 
L 174.760941 0.765354 
L 174.760941 0.765354 
L 174.688281 0.765354 
L 174.615622 0.765354 
L 174.542962 0.765354 
L 174.470303 0.765354 
L 174.397643 0.765354 
L 174.324984 0.765354 
L 174.252324 0.765354 
L 174.179665 0.765354 
L 174.107005 0.765354 
L 174.034346 0.765354 
L 173.961686 0.765354 
L 173.889027 0.765354 
L 173.816367 0.765354 
L 173.743708 0.765354 
L 173.671048 0.765354 
L 173.598389 0.765354 
L 173.525729 0.765354 
L 173.45307 0.765354 
L 173.380411 0.765354 
L 173.307751 0.765354 
L 173.235092 0.765354 
L 173.162432 0.765354 
L 173.089773 0.765354 
L 173.017113 0.765354 
L 172.944454 0.765354 
L 172.871794 0.765354 
L 172.799135 0.765354 
L 172.726475 0.765354 
L 172.653816 0.765354 
L 172.581156 0.765354 
L 172.508497 0.765354 
L 172.435837 0.765354 
L 172.363178 0.765354 
L 172.290518 0.765354 
L 172.217859 0.765354 
L 172.145199 0.765354 
L 172.07254 0.765354 
L 171.99988 0.765354 
L 171.927221 0.765354 
L 171.854561 0.765354 
L 171.781902 0.765354 
L 171.709242 0.765354 
L 171.636583 0.765354 
L 171.563923 0.765354 
L 171.491264 0.765354 
L 171.418604 0.765354 
L 171.345945 0.765354 
L 171.273286 0.765354 
L 171.200626 0.765354 
L 171.127967 0.765354 
z
" style="fill:#808080;fill-opacity:0.15;"/>
   </g>
   <g id="line2d_11">
    <path clip-path="url(#pb19a82d646)" d="M 63.955229 26.034967 
L 68.242138 26.724161 
L 71.657134 27.490391 
L 74.490854 28.347453 
L 76.888617 29.29995 
L 78.923082 30.336986 
L 80.739569 31.504907 
L 82.410737 32.848896 
L 83.936587 34.373385 
L 85.317117 36.070591 
L 86.624988 38.035636 
L 87.860199 40.295122 
L 89.09541 43.045923 
L 90.257962 46.188555 
L 91.420513 49.979815 
L 92.583065 54.526713 
L 93.818276 60.263794 
L 95.271466 68.131421 
L 98.177845 84.265347 
L 98.9771 87.308025 
L 99.558376 88.72328 
L 99.994332 89.27056 
L 100.35763 89.369578 
L 100.648268 89.212277 
L 101.011565 88.724924 
L 101.447522 87.733721 
L 102.028798 85.791687 
L 102.828052 82.192703 
L 104.063263 75.364568 
L 106.751664 60.278662 
L 108.132195 53.932145 
L 109.367406 49.235612 
L 110.602617 45.370799 
L 111.837828 42.206808 
L 113.073039 39.615136 
L 114.38091 37.371031 
L 115.76144 35.443449 
L 117.21463 33.7968 
L 118.740479 32.394983 
L 120.411647 31.155321 
L 122.300794 30.036651 
L 124.407919 29.053413 
L 126.805682 28.183591 
L 129.639402 27.40128 
L 132.981738 26.718595 
L 136.978009 26.136201 
L 141.846195 25.660829 
L 147.440975 25.343479 
L 152.817777 25.252115 
L 156.959367 25.388318 
L 159.865747 25.695174 
L 161.900212 26.121581 
L 163.426061 26.658569 
L 164.588613 27.285733 
L 165.605846 28.090445 
L 166.47776 29.083886 
L 167.204354 30.245529 
L 167.85829 31.685826 
L 168.512225 33.692479 
L 169.093501 36.195245 
L 169.674777 39.729045 
L 170.256053 44.826816 
L 170.837329 52.249317 
L 171.418604 62.772619 
L 172.726475 89.056036 
L 172.944454 89.986939 
L 173.017113 89.880456 
L 173.162432 89.048289 
L 173.45307 85.190607 
L 174.034346 72.536847 
L 174.90626 54.498936 
L 175.560195 45.516539 
L 176.21413 39.612391 
L 176.868066 35.694376 
L 177.522001 33.020437 
L 178.248596 30.963455 
L 179.04785 29.397898 
L 179.919764 28.20981 
L 180.864337 27.306027 
L 181.95423 26.57323 
L 183.2621 25.964779 
L 184.933268 25.443394 
L 187.113053 25.006737 
L 190.164751 24.636176 
L 194.742299 24.325453 
L 202.153566 24.070966 
L 209.201536 23.940587 
L 209.201536 23.940587 
" style="fill:none;stroke:#0000cd;stroke-linecap:square;stroke-width:1.5;"/>
   </g>
   <g id="patch_3">
    <path d="M 56.692913 99.212598 
L 56.692913 13.606299 
" style="fill:none;stroke:#000000;stroke-linecap:square;stroke-linejoin:miter;stroke-width:0.8;"/>
   </g>
   <g id="patch_4">
    <path d="M 216.463851 99.212598 
L 216.463851 13.606299 
" style="fill:none;stroke:#000000;stroke-linecap:square;stroke-linejoin:miter;stroke-width:0.8;"/>
   </g>
   <g id="patch_5">
    <path d="M 56.692913 99.212598 
L 216.463851 99.212598 
" style="fill:none;stroke:#000000;stroke-linecap:square;stroke-linejoin:miter;stroke-width:0.8;"/>
   </g>
   <g id="patch_6">
    <path d="M 56.692913 13.606299 
L 216.463851 13.606299 
" style="fill:none;stroke:#000000;stroke-linecap:square;stroke-linejoin:miter;stroke-width:0.8;"/>
   </g>
  </g>
  <g id="axes_2">
   <g id="patch_7">
    <path d="M 248.418039 99.212598 
L 408.188976 99.212598 
L 408.188976 13.606299 
L 248.418039 13.606299 
z
" style="fill:#ffffff;"/>
   </g>
   <g id="matplotlib.axis_3">
    <g id="xtick_3">
     <g id="line2d_12">
      <path clip-path="url(#pc9a32da8c2)" d="M 292.010096 99.212598 
L 292.010096 13.606299 
" style="fill:none;stroke:#b0b0b0;stroke-dasharray:0.8,1.32;stroke-dashoffset:0;stroke-opacity:0.5;stroke-width:0.8;"/>
     </g>
     <g id="line2d_13">
      <g>
       <use style="stroke:#000000;stroke-width:0.8;" x="292.010096" xlink:href="#mf162ca8f06" y="99.212598"/>
      </g>
     </g>
     <g id="text_8">
      <text style="font-family:Arial;font-size:11px;font-style:normal;font-weight:normal;text-anchor:middle;" transform="rotate(-0, 292.010096, 110.586192)" x="292.010096" y="110.586192">195</text>
     </g>
    </g>
    <g id="xtick_4">
     <g id="line2d_14">
      <path clip-path="url(#pc9a32da8c2)" d="M 364.669579 99.212598 
L 364.669579 13.606299 
" style="fill:none;stroke:#b0b0b0;stroke-dasharray:0.8,1.32;stroke-dashoffset:0;stroke-opacity:0.5;stroke-width:0.8;"/>
     </g>
     <g id="line2d_15">
      <g>
       <use style="stroke:#000000;stroke-width:0.8;" x="364.669579" xlink:href="#mf162ca8f06" y="99.212598"/>
      </g>
     </g>
     <g id="text_9">
      <text style="font-family:Arial;font-size:11px;font-style:normal;font-weight:normal;text-anchor:middle;" transform="rotate(-0, 364.669579, 110.586192)" x="364.669579" y="110.586192">205</text>
     </g>
    </g>
    <g id="text_10">
     <text style="font-family:Arial;font-size:11px;font-style:normal;font-weight:normal;text-anchor:middle;" transform="rotate(-0, 328.303508, 124.646036)" x="328.303508" y="124.646036">Frequency</text>
    </g>
   </g>
   <g id="matplotlib.axis_4">
    <g id="ytick_4">
     <g id="line2d_16">
      <path clip-path="url(#pc9a32da8c2)" d="M 248.418039 89.334949 
L 408.188976 89.334949 
" style="fill:none;stroke:#b0b0b0;stroke-dasharray:0.8,1.32;stroke-dashoffset:0;stroke-opacity:0.5;stroke-width:0.8;"/>
     </g>
     <g id="line2d_17">
      <g>
       <use style="stroke:#000000;stroke-width:0.8;" x="248.418039" xlink:href="#mc550594ef5" y="89.334949"/>
      </g>
     </g>
    </g>
    <g id="ytick_5">
     <g id="line2d_18">
      <path clip-path="url(#pc9a32da8c2)" d="M 248.418039 56.409449 
L 408.188976 56.409449 
" style="fill:none;stroke:#b0b0b0;stroke-dasharray:0.8,1.32;stroke-dashoffset:0;stroke-opacity:0.5;stroke-width:0.8;"/>
     </g>
     <g id="line2d_19">
      <g>
       <use style="stroke:#000000;stroke-width:0.8;" x="248.418039" xlink:href="#mc550594ef5" y="56.409449"/>
      </g>
     </g>
    </g>
    <g id="ytick_6">
     <g id="line2d_20">
      <path clip-path="url(#pc9a32da8c2)" d="M 248.418039 23.483949 
L 408.188976 23.483949 
" style="fill:none;stroke:#b0b0b0;stroke-dasharray:0.8,1.32;stroke-dashoffset:0;stroke-opacity:0.5;stroke-width:0.8;"/>
     </g>
     <g id="line2d_21">
      <g>
       <use style="stroke:#000000;stroke-width:0.8;" x="248.418039" xlink:href="#mc550594ef5" y="23.483949"/>
      </g>
     </g>
    </g>
   </g>
   <g id="line2d_22">
    <path clip-path="url(#pc9a32da8c2)" d="M 255.680354 23.889551 
L 265.489384 24.190791 
L 271.156824 24.57248 
L 274.862458 25.034246 
L 277.478199 25.573606 
L 279.440005 26.192422 
L 281.038514 26.926428 
L 282.346384 27.770647 
L 283.436277 28.727429 
L 284.453509 29.923943 
L 285.398083 31.409746 
L 286.269996 33.230361 
L 287.069251 35.413482 
L 287.868505 38.235254 
L 288.740419 42.189061 
L 289.830311 48.332886 
L 291.065522 55.101472 
L 291.574139 56.753483 
L 291.864777 57.177874 
L 292.082755 57.219076 
L 292.300734 57.019923 
L 292.591371 56.396538 
L 293.027328 54.795293 
L 293.681264 51.374696 
L 295.715729 40.125763 
L 296.660303 36.400255 
L 297.532216 33.821209 
L 298.40413 31.877306 
L 299.348703 30.297522 
L 300.365936 29.032742 
L 301.455828 28.028572 
L 302.69104 27.19195 
L 304.144229 26.483193 
L 305.888057 25.888401 
L 308.067841 25.389463 
L 310.901561 24.980935 
L 314.752514 24.666602 
L 320.056656 24.471961 
L 326.959307 24.448524 
L 333.861958 24.638296 
L 339.1661 24.991783 
L 343.017053 25.456531 
L 345.923432 26.019453 
L 348.175876 26.670897 
L 349.992363 27.416949 
L 351.518212 28.277482 
L 352.826083 29.266704 
L 353.988635 30.427412 
L 355.005868 31.749591 
L 355.950441 33.333292 
L 356.822355 35.212093 
L 357.694268 37.637885 
L 358.493523 40.512212 
L 359.292777 44.221938 
L 360.092031 49.027985 
L 360.891286 55.211913 
L 361.7632 63.727854 
L 364.088303 87.776345 
L 364.4516 89.182989 
L 364.669579 89.418699 
L 364.814898 89.313173 
L 365.032876 88.76588 
L 365.323514 87.350601 
L 365.759471 83.97901 
L 366.486066 76.244473 
L 368.229894 57.150669 
L 369.174467 49.508338 
L 370.046381 44.196939 
L 370.918294 40.190749 
L 371.790208 37.154529 
L 372.734782 34.659552 
L 373.679355 32.75969 
L 374.696588 31.190111 
L 375.78648 29.901053 
L 377.021691 28.788085 
L 378.402221 27.850486 
L 380.00073 27.042251 
L 381.889876 26.344768 
L 384.21498 25.735115 
L 387.121359 25.213076 
L 390.972312 24.761907 
L 396.203795 24.387303 
L 400.926661 24.175853 
L 400.926661 24.175853 
" style="fill:none;stroke:#0000cd;stroke-linecap:square;stroke-width:1.5;"/>
   </g>
   <g id="patch_8">
    <path d="M 248.418039 99.212598 
L 248.418039 13.606299 
" style="fill:none;stroke:#000000;stroke-linecap:square;stroke-linejoin:miter;stroke-width:0.8;"/>
   </g>
   <g id="patch_9">
    <path d="M 408.188976 99.212598 
L 408.188976 13.606299 
" style="fill:none;stroke:#000000;stroke-linecap:square;stroke-linejoin:miter;stroke-width:0.8;"/>
   </g>
   <g id="patch_10">
    <path d="M 248.418039 99.212598 
L 408.188976 99.212598 
" style="fill:none;stroke:#000000;stroke-linecap:square;stroke-linejoin:miter;stroke-width:0.8;"/>
   </g>
   <g id="patch_11">
    <path d="M 248.418039 13.606299 
L 408.188976 13.606299 
" style="fill:none;stroke:#000000;stroke-linecap:square;stroke-linejoin:miter;stroke-width:0.8;"/>
   </g>
  </g>
 </g>
 <defs>
  <clipPath id="pb19a82d646">
   <rect height="85.606299" width="159.770938" x="56.692913" y="13.606299"/>
  </clipPath>
  <clipPath id="pc9a32da8c2">
   <rect height="85.606299" width="159.770938" x="248.418039" y="13.606299"/>
  </clipPath>
 </defs>
</svg>
