<?xml version="1.0" encoding="utf-8" standalone="no"?>
<!DOCTYPE svg PUBLIC "-//W3C//DTD SVG 1.1//EN"
  "http://www.w3.org/Graphics/SVG/1.1/DTD/svg11.dtd">
<!-- Created with matplotlib (https://matplotlib.org/) -->
<svg height="113.385827pt" version="1.1" viewBox="0 0 170.07874 113.385827" width="170.07874pt" xmlns="http://www.w3.org/2000/svg" xmlns:xlink="http://www.w3.org/1999/xlink">
 <defs>
  <style type="text/css">
*{stroke-linecap:butt;stroke-linejoin:round;}
  </style>
 </defs>
 <g id="figure_1">
  <g id="patch_1">
   <path d="M 0 113.385827 
L 170.07874 113.385827 
L 170.07874 0 
L 0 0 
z
" style="fill:#ffffff;"/>
  </g>
  <g id="axes_1">
   <g id="patch_2">
    <path d="M 21.259843 99.212598 
L 153.070866 99.212598 
L 153.070866 13.606299 
L 21.259843 13.606299 
z
" style="fill:#ffffff;"/>
   </g>
   <g id="matplotlib.axis_1">
    <g id="xtick_1">
     <g id="line2d_1">
      <path clip-path="url(#p0e47fcb244)" d="M 87.265378 99.212598 
L 87.265378 13.606299 
" style="fill:none;stroke:#b0b0b0;stroke-dasharray:0.8,1.32;stroke-dashoffset:0;stroke-opacity:0.5;stroke-width:0.8;"/>
     </g>
     <g id="line2d_2">
      <defs>
       <path d="M 0 0 
L 0 -3.5 
" id="m3147a071f4" style="stroke:#000000;stroke-width:0.8;"/>
      </defs>
      <g>
       <use style="stroke:#000000;stroke-width:0.8;" x="87.265378" xlink:href="#m3147a071f4" y="99.212598"/>
      </g>
     </g>
     <g id="text_1">
      <!-- $ω_0$ -->
      <g transform="translate(80.005378 110.586192)">
       <text>
        <tspan style="font-family:DejaVu Sans;font-size:11px;font-style:oblique;font-weight:oblique;" x="0" y="-0.984375">ω</tspan>
        <tspan style="font-family:DejaVu Sans;font-size:7.7px;font-style:book;font-weight:book;" x="9.211426" y="0.8203125">0</tspan>
       </text>
      </g>
     </g>
    </g>
    <g id="text_2">
     <text style="font-family:Arial;font-size:11px;font-style:normal;font-weight:normal;text-anchor:middle;" transform="rotate(-0, 87.165354, 124.646036)" x="87.165354" y="124.646036">Frequency</text>
    </g>
   </g>
   <g id="matplotlib.axis_2">
    <g id="ytick_1">
     <g id="line2d_3">
      <path clip-path="url(#p0e47fcb244)" d="M 21.259843 88.836077 
L 153.070866 88.836077 
" style="fill:none;stroke:#b0b0b0;stroke-dasharray:0.8,1.32;stroke-dashoffset:0;stroke-opacity:0.5;stroke-width:0.8;"/>
     </g>
     <g id="line2d_4">
      <defs>
       <path d="M 0 0 
L 3.5 0 
" id="mbdd143a08e" style="stroke:#000000;stroke-width:0.8;"/>
      </defs>
      <g>
       <use style="stroke:#000000;stroke-width:0.8;" x="21.259843" xlink:href="#mbdd143a08e" y="88.836077"/>
      </g>
     </g>
     <g id="text_3">
      <text style="font-family:Arial;font-size:11px;font-style:normal;font-weight:normal;text-anchor:end;" transform="rotate(-0, 17.759843, 92.772874)" x="17.759843" y="92.772874">0.0</text>
     </g>
    </g>
    <g id="ytick_2">
     <g id="line2d_5">
      <path clip-path="url(#p0e47fcb244)" d="M 21.259843 56.409449 
L 153.070866 56.409449 
" style="fill:none;stroke:#b0b0b0;stroke-dasharray:0.8,1.32;stroke-dashoffset:0;stroke-opacity:0.5;stroke-width:0.8;"/>
     </g>
     <g id="line2d_6">
      <g>
       <use style="stroke:#000000;stroke-width:0.8;" x="21.259843" xlink:href="#mbdd143a08e" y="56.409449"/>
      </g>
     </g>
     <g id="text_4">
      <text style="font-family:Arial;font-size:11px;font-style:normal;font-weight:normal;text-anchor:end;" transform="rotate(-0, 17.759843, 60.346246)" x="17.759843" y="60.346246">0.5</text>
     </g>
    </g>
    <g id="ytick_3">
     <g id="line2d_7">
      <path clip-path="url(#p0e47fcb244)" d="M 21.259843 23.98282 
L 153.070866 23.98282 
" style="fill:none;stroke:#b0b0b0;stroke-dasharray:0.8,1.32;stroke-dashoffset:0;stroke-opacity:0.5;stroke-width:0.8;"/>
     </g>
     <g id="line2d_8">
      <g>
       <use style="stroke:#000000;stroke-width:0.8;" x="21.259843" xlink:href="#mbdd143a08e" y="23.98282"/>
      </g>
     </g>
     <g id="text_5">
      <text style="font-family:Arial;font-size:11px;font-style:normal;font-weight:normal;text-anchor:end;" transform="rotate(-0, 17.759843, 27.919617)" x="17.759843" y="27.919617">1.0</text>
     </g>
    </g>
    <g id="text_6">
     <text style="font-family:Arial;font-size:11px;font-style:normal;font-weight:normal;text-anchor:middle;" transform="rotate(-90, -3.716407, 56.409449)" x="-3.716407" y="56.409449">Norm. Trans.</text>
    </g>
   </g>
   <g id="PolyCollection_1">
    <path clip-path="url(#p0e47fcb244)" d="M 79.463542 5.045669 
L 79.463542 107.773228 
L 79.663589 107.773228 
L 79.863636 107.773228 
L 80.063683 107.773228 
L 80.26373 107.773228 
L 80.463777 107.773228 
L 80.663824 107.773228 
L 80.863871 107.773228 
L 81.063918 107.773228 
L 81.263965 107.773228 
L 81.464012 107.773228 
L 81.66406 107.773228 
L 81.864107 107.773228 
L 82.064154 107.773228 
L 82.264201 107.773228 
L 82.464248 107.773228 
L 82.664295 107.773228 
L 82.864342 107.773228 
L 83.064389 107.773228 
L 83.264436 107.773228 
L 83.464483 107.773228 
L 83.66453 107.773228 
L 83.864577 107.773228 
L 84.064625 107.773228 
L 84.264672 107.773228 
L 84.464719 107.773228 
L 84.664766 107.773228 
L 84.864813 107.773228 
L 85.06486 107.773228 
L 85.264907 107.773228 
L 85.464954 107.773228 
L 85.665001 107.773228 
L 85.865048 107.773228 
L 86.065095 107.773228 
L 86.265142 107.773228 
L 86.46519 107.773228 
L 86.665237 107.773228 
L 86.865284 107.773228 
L 87.065331 107.773228 
L 87.265378 107.773228 
L 87.465425 107.773228 
L 87.665472 107.773228 
L 87.865519 107.773228 
L 88.065566 107.773228 
L 88.265613 107.773228 
L 88.46566 107.773228 
L 88.665707 107.773228 
L 88.865755 107.773228 
L 89.065802 107.773228 
L 89.265849 107.773228 
L 89.465896 107.773228 
L 89.665943 107.773228 
L 89.86599 107.773228 
L 90.066037 107.773228 
L 90.266084 107.773228 
L 90.466131 107.773228 
L 90.666178 107.773228 
L 90.866225 107.773228 
L 91.066272 107.773228 
L 91.26632 107.773228 
L 91.466367 107.773228 
L 91.666414 107.773228 
L 91.866461 107.773228 
L 92.066508 107.773228 
L 92.266555 107.773228 
L 92.466602 107.773228 
L 92.666649 107.773228 
L 92.866696 107.773228 
L 93.066743 107.773228 
L 93.26679 107.773228 
L 93.466837 107.773228 
L 93.666885 107.773228 
L 93.866932 107.773228 
L 94.066979 107.773228 
L 94.267026 107.773228 
L 94.467073 107.773228 
L 94.66712 107.773228 
L 94.867167 107.773228 
L 95.067214 107.773228 
L 95.267261 107.773228 
L 95.267261 5.045669 
L 95.267261 5.045669 
L 95.067214 5.045669 
L 94.867167 5.045669 
L 94.66712 5.045669 
L 94.467073 5.045669 
L 94.267026 5.045669 
L 94.066979 5.045669 
L 93.866932 5.045669 
L 93.666885 5.045669 
L 93.466837 5.045669 
L 93.26679 5.045669 
L 93.066743 5.045669 
L 92.866696 5.045669 
L 92.666649 5.045669 
L 92.466602 5.045669 
L 92.266555 5.045669 
L 92.066508 5.045669 
L 91.866461 5.045669 
L 91.666414 5.045669 
L 91.466367 5.045669 
L 91.26632 5.045669 
L 91.066272 5.045669 
L 90.866225 5.045669 
L 90.666178 5.045669 
L 90.466131 5.045669 
L 90.266084 5.045669 
L 90.066037 5.045669 
L 89.86599 5.045669 
L 89.665943 5.045669 
L 89.465896 5.045669 
L 89.265849 5.045669 
L 89.065802 5.045669 
L 88.865755 5.045669 
L 88.665707 5.045669 
L 88.46566 5.045669 
L 88.265613 5.045669 
L 88.065566 5.045669 
L 87.865519 5.045669 
L 87.665472 5.045669 
L 87.465425 5.045669 
L 87.265378 5.045669 
L 87.065331 5.045669 
L 86.865284 5.045669 
L 86.665237 5.045669 
L 86.46519 5.045669 
L 86.265142 5.045669 
L 86.065095 5.045669 
L 85.865048 5.045669 
L 85.665001 5.045669 
L 85.464954 5.045669 
L 85.264907 5.045669 
L 85.06486 5.045669 
L 84.864813 5.045669 
L 84.664766 5.045669 
L 84.464719 5.045669 
L 84.264672 5.045669 
L 84.064625 5.045669 
L 83.864577 5.045669 
L 83.66453 5.045669 
L 83.464483 5.045669 
L 83.264436 5.045669 
L 83.064389 5.045669 
L 82.864342 5.045669 
L 82.664295 5.045669 
L 82.464248 5.045669 
L 82.264201 5.045669 
L 82.064154 5.045669 
L 81.864107 5.045669 
L 81.66406 5.045669 
L 81.464012 5.045669 
L 81.263965 5.045669 
L 81.063918 5.045669 
L 80.863871 5.045669 
L 80.663824 5.045669 
L 80.463777 5.045669 
L 80.26373 5.045669 
L 80.063683 5.045669 
L 79.863636 5.045669 
L 79.663589 5.045669 
L 79.463542 5.045669 
z
" style="fill-opacity:0.2;"/>
   </g>
   <g id="line2d_9">
    <path clip-path="url(#p0e47fcb244)" d="M 27.251253 25.115628 
L 37.05356 25.589068 
L 44.055208 26.133127 
L 49.456479 26.763164 
L 53.657468 27.462072 
L 57.058268 28.235319 
L 60.058974 29.146296 
L 62.459539 30.095286 
L 64.660057 31.204284 
L 66.460481 32.340199 
L 68.260905 33.748958 
L 69.861282 35.299781 
L 71.261611 36.953472 
L 72.661941 38.958316 
L 74.06227 41.404783 
L 75.262553 43.937669 
L 76.462835 46.960059 
L 77.663118 50.562024 
L 78.8634 54.828602 
L 80.26373 60.713869 
L 81.864107 68.536367 
L 84.664766 82.640373 
L 85.464954 85.711084 
L 86.065095 87.408989 
L 86.665237 88.473318 
L 87.065331 88.795569 
L 87.465425 88.795569 
L 87.865519 88.473318 
L 88.265613 87.838335 
L 88.865755 86.341721 
L 89.665943 83.481221 
L 90.666178 78.914113 
L 95.267261 56.409449 
L 96.667591 51.224934 
L 98.06792 46.960059 
L 99.46825 43.483894 
L 100.86858 40.654609 
L 102.268909 38.344787 
L 103.669239 36.448607 
L 105.269615 34.680265 
L 106.869992 33.244264 
L 108.670416 31.934787 
L 110.670887 30.76974 
L 112.871405 29.752683 
L 115.472017 28.813378 
L 118.472723 27.983638 
L 122.07357 27.238097 
L 126.274559 26.601501 
L 131.675831 26.022071 
L 138.477431 25.528417 
L 147.079456 25.123085 
L 147.079456 25.123085 
" style="fill:none;stroke:#0000cd;stroke-linecap:square;stroke-width:1.5;"/>
   </g>
   <g id="patch_3">
    <path d="M 21.259843 99.212598 
L 21.259843 13.606299 
" style="fill:none;stroke:#000000;stroke-linecap:square;stroke-linejoin:miter;stroke-width:0.8;"/>
   </g>
   <g id="patch_4">
    <path d="M 153.070866 99.212598 
L 153.070866 13.606299 
" style="fill:none;stroke:#000000;stroke-linecap:square;stroke-linejoin:miter;stroke-width:0.8;"/>
   </g>
   <g id="patch_5">
    <path d="M 21.259843 99.212598 
L 153.070866 99.212598 
" style="fill:none;stroke:#000000;stroke-linecap:square;stroke-linejoin:miter;stroke-width:0.8;"/>
   </g>
   <g id="patch_6">
    <path d="M 21.259843 13.606299 
L 153.070866 13.606299 
" style="fill:none;stroke:#000000;stroke-linecap:square;stroke-linejoin:miter;stroke-width:0.8;"/>
   </g>
  </g>
 </g>
 <defs>
  <clipPath id="p0e47fcb244">
   <rect height="85.606299" width="131.811024" x="21.259843" y="13.606299"/>
  </clipPath>
 </defs>
</svg>
