<?xml version="1.0" encoding="utf-8" standalone="no"?>
<!DOCTYPE svg PUBLIC "-//W3C//DTD SVG 1.1//EN"
  "http://www.w3.org/Graphics/SVG/1.1/DTD/svg11.dtd">
<!-- Created with matplotlib (https://matplotlib.org/) -->
<svg height="48.188976pt" version="1.1" viewBox="0 0 144.566929 48.188976" width="144.566929pt" xmlns="http://www.w3.org/2000/svg" xmlns:xlink="http://www.w3.org/1999/xlink">
 <defs>
  <style type="text/css">
*{stroke-linecap:butt;stroke-linejoin:round;}
  </style>
 </defs>
 <g id="figure_1">
  <g id="patch_1">
   <path d="M 0 48.188976 
L 144.566929 48.188976 
L 144.566929 0 
L 0 0 
z
" style="fill:#ffffff;"/>
  </g>
  <g id="axes_1">
   <g id="patch_2">
    <path d="M 18.070866 42.165354 
L 130.110236 42.165354 
L 130.110236 5.782677 
L 18.070866 5.782677 
z
" style="fill:#ffffff;"/>
   </g>
   <g id="matplotlib.axis_1">
    <g id="xtick_1">
     <g id="line2d_1">
      <path clip-path="url(#pfee55a5a9e)" d="M 23.163565 42.165354 
L 23.163565 5.782677 
" style="fill:none;stroke:#b0b0b0;stroke-dasharray:0.8,1.32;stroke-dashoffset:0;stroke-opacity:0.5;stroke-width:0.8;"/>
     </g>
     <g id="line2d_2">
      <defs>
       <path d="M 0 0 
L 0 -3.5 
" id="mad5c618f46" style="stroke:#000000;stroke-width:0.8;"/>
      </defs>
      <g>
       <use style="stroke:#000000;stroke-width:0.8;" x="23.163565" xlink:href="#mad5c618f46" y="42.165354"/>
      </g>
     </g>
     <g id="text_1">
      <text style="font-family:Arial;font-size:9px;font-style:normal;font-weight:normal;text-anchor:middle;" transform="rotate(-0, 23.163565, 52.107386)" x="23.163565" y="52.107386">0</text>
     </g>
    </g>
    <g id="xtick_2">
     <g id="line2d_3">
      <path clip-path="url(#pfee55a5a9e)" d="M 54.216996 42.165354 
L 54.216996 5.782677 
" style="fill:none;stroke:#b0b0b0;stroke-dasharray:0.8,1.32;stroke-dashoffset:0;stroke-opacity:0.5;stroke-width:0.8;"/>
     </g>
     <g id="line2d_4">
      <g>
       <use style="stroke:#000000;stroke-width:0.8;" x="54.216996" xlink:href="#mad5c618f46" y="42.165354"/>
      </g>
     </g>
     <g id="text_2">
      <text style="font-family:Arial;font-size:9px;font-style:normal;font-weight:normal;text-anchor:middle;" transform="rotate(-0, 54.216996, 52.107386)" x="54.216996" y="52.107386">100</text>
     </g>
    </g>
    <g id="xtick_3">
     <g id="line2d_5">
      <path clip-path="url(#pfee55a5a9e)" d="M 85.270428 42.165354 
L 85.270428 5.782677 
" style="fill:none;stroke:#b0b0b0;stroke-dasharray:0.8,1.32;stroke-dashoffset:0;stroke-opacity:0.5;stroke-width:0.8;"/>
     </g>
     <g id="line2d_6">
      <g>
       <use style="stroke:#000000;stroke-width:0.8;" x="85.270428" xlink:href="#mad5c618f46" y="42.165354"/>
      </g>
     </g>
     <g id="text_3">
      <text style="font-family:Arial;font-size:9px;font-style:normal;font-weight:normal;text-anchor:middle;" transform="rotate(-0, 85.270428, 52.107386)" x="85.270428" y="52.107386">200</text>
     </g>
    </g>
    <g id="xtick_4">
     <g id="line2d_7">
      <path clip-path="url(#pfee55a5a9e)" d="M 116.32386 42.165354 
L 116.32386 5.782677 
" style="fill:none;stroke:#b0b0b0;stroke-dasharray:0.8,1.32;stroke-dashoffset:0;stroke-opacity:0.5;stroke-width:0.8;"/>
     </g>
     <g id="line2d_8">
      <g>
       <use style="stroke:#000000;stroke-width:0.8;" x="116.32386" xlink:href="#mad5c618f46" y="42.165354"/>
      </g>
     </g>
     <g id="text_4">
      <text style="font-family:Arial;font-size:9px;font-style:normal;font-weight:normal;text-anchor:middle;" transform="rotate(-0, 116.32386, 52.107386)" x="116.32386" y="52.107386">300</text>
     </g>
    </g>
    <g id="text_5">
     <text style="font-family:Arial;font-size:9px;font-style:normal;font-weight:normal;text-anchor:middle;" transform="rotate(-0, 74.090551, 64.447854)" x="74.090551" y="64.447854">Length (μm)</text>
    </g>
   </g>
   <g id="matplotlib.axis_2">
    <g id="ytick_1">
     <g id="line2d_9">
      <path clip-path="url(#pfee55a5a9e)" d="M 18.070866 29.641254 
L 130.110236 29.641254 
" style="fill:none;stroke:#b0b0b0;stroke-dasharray:0.8,1.32;stroke-dashoffset:0;stroke-opacity:0.5;stroke-width:0.8;"/>
     </g>
     <g id="line2d_10">
      <defs>
       <path d="M 0 0 
L 3.5 0 
" id="ma75b1631c2" style="stroke:#000000;stroke-width:0.8;"/>
      </defs>
      <g>
       <use style="stroke:#000000;stroke-width:0.8;" x="18.070866" xlink:href="#ma75b1631c2" y="29.641254"/>
      </g>
     </g>
     <g id="text_6">
      <text style="font-family:Arial;font-size:9px;font-style:normal;font-weight:normal;text-anchor:end;" transform="rotate(-0, 14.570866, 32.862269)" x="14.570866" y="32.862269">0.5</text>
     </g>
    </g>
    <g id="ytick_2">
     <g id="line2d_11">
      <path clip-path="url(#pfee55a5a9e)" d="M 18.070866 7.436435 
L 130.110236 7.436435 
" style="fill:none;stroke:#b0b0b0;stroke-dasharray:0.8,1.32;stroke-dashoffset:0;stroke-opacity:0.5;stroke-width:0.8;"/>
     </g>
     <g id="line2d_12">
      <g>
       <use style="stroke:#000000;stroke-width:0.8;" x="18.070866" xlink:href="#ma75b1631c2" y="7.436435"/>
      </g>
     </g>
     <g id="text_7">
      <text style="font-family:Arial;font-size:9px;font-style:normal;font-weight:normal;text-anchor:end;" transform="rotate(-0, 14.570866, 10.657451)" x="14.570866" y="10.657451">1.0</text>
     </g>
    </g>
    <g id="text_8">
     <text style="font-family:Arial;font-size:9px;font-style:normal;font-weight:normal;text-anchor:middle;" transform="rotate(-90, -3.833353, 23.974016)" x="-3.833353" y="23.974016">Norm. Intensity</text>
    </g>
   </g>
   <g id="line2d_13">
    <path clip-path="url(#pfee55a5a9e)" d="M 23.163565 39.278442 
L 23.323965 39.852023 
L 23.484365 39.598935 
L 23.644765 39.57965 
L 23.805165 39.725362 
L 23.965565 40.025499 
L 24.125965 40.04539 
L 24.446764 39.891106 
L 24.607164 40.181087 
L 24.767564 39.764213 
L 24.927964 40.025685 
L 25.088364 40.044505 
L 25.409164 39.889662 
L 25.569564 40.035654 
L 25.729964 39.60937 
L 26.050764 39.579603 
L 26.371564 40.034629 
L 26.852764 39.7344 
L 27.173564 40.034024 
L 27.654764 39.734353 
L 28.135963 40.034909 
L 28.296363 39.755595 
L 28.617163 39.889662 
L 28.937963 39.590271 
L 29.258763 39.87946 
L 29.579563 39.433704 
L 29.739963 39.712319 
L 29.900363 39.588966 
L 30.060763 39.290227 
L 30.381563 39.880159 
L 30.702363 40.044552 
L 31.183563 39.589665 
L 31.504363 38.970526 
L 31.664763 39.682273 
L 31.985562 40.034769 
L 32.145962 39.757179 
L 32.306362 39.735378 
L 32.627162 39.889662 
L 33.268762 39.888777 
L 33.429162 39.600845 
L 33.749962 39.57965 
L 34.070762 40.178246 
L 34.391562 39.745952 
L 34.712362 39.889662 
L 34.872762 39.745067 
L 35.514361 40.34385 
L 35.674761 40.211413 
L 35.835161 39.76943 
L 35.995561 39.878528 
L 36.316361 39.148614 
L 36.476761 39.54569 
L 36.637161 39.292184 
L 36.797561 39.41344 
L 37.118361 40.033558 
L 37.278761 40.044505 
L 37.920361 39.591109 
L 38.080761 39.579603 
L 38.401561 40.032906 
L 38.722361 39.745626 
L 38.882761 39.447586 
L 39.043161 39.711061 
L 39.20356 39.591295 
L 39.36396 40.153277 
L 39.68476 40.199767 
L 40.32636 39.591435 
L 40.48676 40.008822 
L 40.64716 40.044458 
L 40.80756 39.759135 
L 40.96796 39.877783 
L 41.44916 39.138738 
L 41.60956 39.25706 
L 41.93036 39.864088 
L 42.25116 39.889662 
L 42.41156 39.747024 
L 42.57196 39.449636 
L 43.373959 39.424341 
L 43.534359 39.567724 
L 43.855159 40.031695 
L 44.015559 39.901587 
L 44.175959 39.603966 
L 44.336359 39.579137 
L 44.657159 39.281656 
L 44.817559 39.553656 
L 45.459159 39.721775 
L 45.779959 40.031834 
L 46.100759 39.151455 
L 46.261159 39.113723 
L 46.421559 39.398813 
L 46.581959 39.282262 
L 46.742358 39.411577 
L 46.902758 39.708779 
L 47.223558 39.7344 
L 47.383958 39.450101 
L 47.865158 39.423409 
L 48.185958 39.874848 
L 48.346358 39.888637 
L 48.506758 39.604712 
L 48.667158 39.578625 
L 48.827558 40.147314 
L 49.148358 39.450101 
L 49.308758 39.564603 
L 49.469158 39.436033 
L 49.629558 39.706962 
L 49.789958 39.166642 
L 49.950358 39.254917 
L 50.110758 39.693593 
L 50.271158 39.592786 
L 50.431557 39.29619 
L 50.752357 39.268566 
L 50.912757 39.410412 
L 51.073157 39.707102 
L 51.393957 39.733934 
L 51.714757 39.282541 
L 52.035557 39.268566 
L 52.195957 39.551467 
L 52.677157 38.831894 
L 52.837557 39.509961 
L 53.318757 39.267728 
L 53.799957 38.36401 
L 53.960357 37.628413 
L 54.281156 33.858841 
L 54.922756 23.766044 
L 55.083156 21.607651 
L 55.243556 22.400733 
L 55.724756 31.673383 
L 56.045556 33.861776 
L 56.526756 36.756093 
L 57.168356 38.010629 
L 57.328756 38.024464 
L 57.809956 38.336852 
L 57.970355 38.055209 
L 58.291155 38.180239 
L 58.611955 36.984258 
L 58.932755 37.39121 
L 59.093155 37.123449 
L 59.253555 37.094195 
L 60.055555 37.714918 
L 60.215955 37.71571 
L 60.376355 37.434766 
L 60.536755 37.825367 
L 61.017955 37.561472 
L 61.338755 38.617191 
L 61.659555 38.647936 
L 61.819954 38.927203 
L 62.140754 38.957948 
L 62.461554 38.802826 
L 62.621954 39.222402 
L 63.103154 39.408689 
L 63.423954 39.717816 
L 63.584354 39.453316 
L 63.905154 39.578112 
L 64.065554 39.998946 
L 64.225954 39.906758 
L 64.386354 40.03067 
L 64.546754 39.764818 
L 64.867554 38.97388 
L 65.027954 39.098304 
L 65.188354 39.672537 
L 65.509153 38.973647 
L 65.669553 38.817825 
L 65.829953 38.38269 
L 66.471553 35.325331 
L 66.631953 35.091297 
L 66.792353 35.075132 
L 67.113153 33.726218 
L 67.273553 33.539093 
L 67.915153 31.118528 
L 68.075553 30.899074 
L 68.235953 31.300297 
L 68.396353 31.347951 
L 68.717153 29.288641 
L 69.037953 29.175676 
L 69.358752 28.259195 
L 69.519152 28.103281 
L 69.679552 27.252622 
L 70.160752 26.568126 
L 70.321152 26.673964 
L 70.802352 24.876592 
L 71.443952 23.496327 
L 71.604352 22.598293 
L 71.764752 22.361137 
L 71.925152 22.343435 
L 72.245952 21.59908 
L 72.406352 21.565074 
L 73.047951 17.678578 
L 73.689551 9.516615 
L 74.010351 8.401549 
L 74.331151 7.623654 
L 74.651951 7.436435 
L 74.972751 8.024876 
L 75.614351 11.854075 
L 75.774751 13.046236 
L 76.416351 21.135715 
L 76.89755 23.206765 
L 77.05795 23.690113 
L 77.37875 25.396136 
L 77.85995 25.466896 
L 78.18075 26.932315 
L 78.66195 28.191137 
L 78.98275 29.55221 
L 79.14315 29.503344 
L 79.30355 29.900234 
L 79.78475 32.228656 
L 79.94515 32.557302 
L 80.26595 33.351315 
L 80.586749 33.369436 
L 80.907549 34.557591 
L 81.067949 34.884467 
L 81.549149 36.695022 
L 82.030349 37.972338 
L 82.351149 38.473761 
L 82.511549 38.354833 
L 82.671949 38.473761 
L 82.992749 39.231951 
L 83.153149 38.995774 
L 83.473949 39.251423 
L 83.794749 40.02685 
L 84.115549 39.305041 
L 84.275948 39.405614 
L 84.436348 39.834926 
L 84.596748 39.889662 
L 84.757148 40.16278 
L 84.917548 39.926183 
L 85.559148 39.889196 
L 85.719548 39.616777 
L 85.879948 39.57965 
L 86.040348 39.853187 
L 86.200748 39.479868 
L 86.521548 39.580581 
L 86.681948 39.853141 
L 86.842348 39.88887 
L 87.163148 39.597724 
L 87.483948 40.024474 
L 87.804748 39.287665 
L 87.965147 38.859937 
L 88.285947 38.958088 
L 88.446347 38.549086 
L 88.767147 38.783028 
L 88.927547 38.937731 
L 89.248347 38.355905 
L 89.889947 37.871112 
L 90.210747 38.161652 
L 90.371147 38.044076 
L 90.531547 37.618164 
L 90.691947 37.968098 
L 91.012747 38.026421 
L 91.173147 37.889885 
L 91.493947 38.162351 
L 91.654346 38.046498 
L 91.814746 38.162444 
L 92.135546 38.025908 
L 92.456346 37.28882 
L 92.616746 37.114086 
L 92.937546 34.941857 
L 93.097946 33.950983 
L 93.258346 33.697662 
L 93.418746 32.863727 
L 93.739546 27.334795 
L 93.899946 26.865095 
L 94.381146 30.435057 
L 95.343546 38.918352 
L 95.503945 39.499713 
L 95.664345 39.17335 
L 95.985145 39.849787 
L 96.145545 39.890081 
L 96.787145 39.308628 
L 97.268345 39.579184 
L 97.428745 39.444791 
L 97.749545 39.868746 
L 97.909945 39.754058 
L 98.070345 39.329171 
L 98.391145 39.579463 
L 98.711945 39.868886 
L 98.872345 39.754663 
L 99.032745 39.869724 
L 99.353544 39.600472 
L 99.513944 39.714089 
L 99.674344 39.600007 
L 99.834744 39.982316 
L 99.995144 40.044784 
L 100.155544 39.641512 
L 100.315944 39.848715 
L 100.476344 40.292142 
L 100.636744 39.951199 
L 100.957544 39.889662 
L 101.278344 40.044878 
L 101.438744 40.044971 
L 101.759544 40.199767 
L 101.919944 40.065235 
L 102.080344 39.373332 
L 102.561544 39.558175 
L 103.042743 39.910485 
L 103.203143 39.755781 
L 103.363543 39.332432 
L 103.523943 39.269544 
L 103.844743 40.157703 
L 104.005143 40.200187 
L 104.165543 40.469019 
L 104.486343 40.221429 
L 104.807143 39.756154 
L 105.288343 40.179038 
L 105.609143 39.889755 
L 105.769543 40.022797 
L 106.090343 39.755222 
L 106.411143 40.177827 
L 106.571543 40.199674 
L 106.731942 39.799989 
L 106.892342 39.869212 
L 107.052742 40.156911 
L 107.373542 39.466825 
L 108.175542 39.889755 
L 108.335942 39.623345 
L 108.656742 39.579137 
L 108.817142 39.846153 
L 109.458742 39.911556 
L 109.619142 39.356935 
L 109.779542 39.80134 
L 109.939942 39.889149 
L 110.100342 39.757132 
L 110.260742 40.001136 
L 110.581541 39.601684 
L 110.741941 39.580442 
L 111.062741 40.48877 
L 111.383541 40.067098 
L 111.543941 40.177221 
L 111.704341 40.067424 
L 111.864741 40.31031 
L 112.025141 40.09011 
L 112.185541 40.178525 
L 112.345941 40.066912 
L 112.666741 40.199767 
L 112.987541 39.601497 
L 113.308341 40.020608 
L 113.468741 39.910624 
L 113.949941 40.511596 
L 114.11034 40.112703 
L 114.43114 40.046182 
L 114.59154 40.310496 
L 115.07274 40.045017 
L 115.23314 39.780191 
L 115.55394 40.177081 
L 115.71434 40.067657 
L 116.03514 40.35461 
L 116.19554 39.692754 
L 116.51634 39.578485 
L 116.83714 39.734865 
L 117.15794 39.579137 
L 117.31834 39.57951 
L 117.79954 39.999785 
L 118.120339 40.487326 
L 118.441139 40.510152 
L 118.922339 39.912814 
L 119.243139 39.7344 
L 119.884739 39.734865 
L 120.205539 40.331039 
L 120.686739 39.937456 
L 121.167939 40.486767 
L 121.328339 40.509919 
L 121.488739 40.247282 
L 121.649138 40.200233 
L 121.809538 39.936991 
L 122.130338 40.330527 
L 122.771938 40.377855 
L 123.253138 40.02112 
L 123.413538 40.045763 
L 124.055138 39.603081 
L 124.215538 39.709571 
L 124.536338 40.437901 
L 124.857138 39.78252 
L 125.017538 39.866789 
L 125.017538 39.866789 
" style="fill:none;stroke:#0000cd;stroke-linecap:square;stroke-width:1.1;"/>
   </g>
   <g id="line2d_14">
    <path clip-path="url(#pfee55a5a9e)" d="M 55.083156 42.165354 
L 55.083156 5.782677 
" style="fill:none;stroke:#000000;stroke-dasharray:2.59,1.12;stroke-dashoffset:0;stroke-opacity:0.7;stroke-width:0.7;"/>
   </g>
   <g id="line2d_15">
    <path clip-path="url(#pfee55a5a9e)" d="M 93.899946 42.165354 
L 93.899946 5.782677 
" style="fill:none;stroke:#000000;stroke-dasharray:2.59,1.12;stroke-dashoffset:0;stroke-opacity:0.7;stroke-width:0.7;"/>
   </g>
   <g id="patch_3">
    <path d="M 18.070866 42.165354 
L 18.070866 5.782677 
" style="fill:none;stroke:#000000;stroke-linecap:square;stroke-linejoin:miter;stroke-width:0.8;"/>
   </g>
   <g id="patch_4">
    <path d="M 130.110236 42.165354 
L 130.110236 5.782677 
" style="fill:none;stroke:#000000;stroke-linecap:square;stroke-linejoin:miter;stroke-width:0.8;"/>
   </g>
   <g id="patch_5">
    <path d="M 18.070866 42.165354 
L 130.110236 42.165354 
" style="fill:none;stroke:#000000;stroke-linecap:square;stroke-linejoin:miter;stroke-width:0.8;"/>
   </g>
   <g id="patch_6">
    <path d="M 18.070866 5.782677 
L 130.110236 5.782677 
" style="fill:none;stroke:#000000;stroke-linecap:square;stroke-linejoin:miter;stroke-width:0.8;"/>
   </g>
  </g>
 </g>
 <defs>
  <clipPath id="pfee55a5a9e">
   <rect height="36.382677" width="112.03937" x="18.070866" y="5.782677"/>
  </clipPath>
 </defs>
</svg>
