<?xml version="1.0" encoding="utf-8" standalone="no"?>
<!DOCTYPE svg PUBLIC "-//W3C//DTD SVG 1.1//EN"
  "http://www.w3.org/Graphics/SVG/1.1/DTD/svg11.dtd">
<!-- Created with matplotlib (https://matplotlib.org/) -->
<svg height="198.425197pt" version="1.1" viewBox="0 0 283.464567 198.425197" width="283.464567pt" xmlns="http://www.w3.org/2000/svg" xmlns:xlink="http://www.w3.org/1999/xlink">
 <metadata>
  <rdf:RDF xmlns:cc="http://creativecommons.org/ns#" xmlns:dc="http://purl.org/dc/elements/1.1/" xmlns:rdf="http://www.w3.org/1999/02/22-rdf-syntax-ns#">
   <cc:Work>
    <dc:type rdf:resource="http://purl.org/dc/dcmitype/StillImage"/>
    <dc:date>2020-11-05T11:44:17.299190</dc:date>
    <dc:format>image/svg+xml</dc:format>
    <dc:creator>
     <cc:Agent>
      <dc:title>Matplotlib v3.3.0, https://matplotlib.org/</dc:title>
     </cc:Agent>
    </dc:creator>
   </cc:Work>
  </rdf:RDF>
 </metadata>
 <defs>
  <style type="text/css">*{stroke-linecap:butt;stroke-linejoin:round;}</style>
 </defs>
 <g id="figure_1">
  <g id="patch_1">
   <path d="M 0 198.425197 
L 283.464567 198.425197 
L 283.464567 0 
L 0 0 
z
" style="fill:none;"/>
  </g>
  <g id="axes_1">
   <g id="patch_2">
    <path d="M 35.433071 173.622047 
L 255.11811 173.622047 
L 255.11811 23.811024 
L 35.433071 23.811024 
z
" style="fill:#ffffff;"/>
   </g>
   <g id="matplotlib.axis_1">
    <g id="xtick_1">
     <g id="line2d_1">
      <path clip-path="url(#p4178f1c781)" d="M 70.489194 173.622047 
L 70.489194 23.811024 
" style="fill:none;stroke:#b0b0b0;stroke-dasharray:0.6,0.99;stroke-dashoffset:0;stroke-opacity:0.5;stroke-width:0.6;"/>
     </g>
     <g id="line2d_2">
      <defs>
       <path d="M 0 0 
L 0 -3.5 
" id="md407dad5a1" style="stroke:#000000;stroke-width:0.8;"/>
      </defs>
      <g>
       <use style="stroke:#000000;stroke-width:0.8;" x="70.489194" xlink:href="#md407dad5a1" y="173.622047"/>
      </g>
     </g>
     <g id="text_1">
      <text style="font-family:Arial;font-size:10px;font-stretch:normal;font-style:normal;font-weight:normal;text-anchor:middle;" transform="rotate(-0, 70.489194, 184.27986)" x="70.489194" y="184.27986">2</text>
     </g>
    </g>
    <g id="xtick_2">
     <g id="line2d_3">
      <path clip-path="url(#p4178f1c781)" d="M 117.230692 173.622047 
L 117.230692 23.811024 
" style="fill:none;stroke:#b0b0b0;stroke-dasharray:0.6,0.99;stroke-dashoffset:0;stroke-opacity:0.5;stroke-width:0.6;"/>
     </g>
     <g id="line2d_4">
      <g>
       <use style="stroke:#000000;stroke-width:0.8;" x="117.230692" xlink:href="#md407dad5a1" y="173.622047"/>
      </g>
     </g>
     <g id="text_2">
      <text style="font-family:Arial;font-size:10px;font-stretch:normal;font-style:normal;font-weight:normal;text-anchor:middle;" transform="rotate(-0, 117.230692, 184.27986)" x="117.230692" y="184.27986">4</text>
     </g>
    </g>
    <g id="xtick_3">
     <g id="line2d_5">
      <path clip-path="url(#p4178f1c781)" d="M 163.97219 173.622047 
L 163.97219 23.811024 
" style="fill:none;stroke:#b0b0b0;stroke-dasharray:0.6,0.99;stroke-dashoffset:0;stroke-opacity:0.5;stroke-width:0.6;"/>
     </g>
     <g id="line2d_6">
      <g>
       <use style="stroke:#000000;stroke-width:0.8;" x="163.97219" xlink:href="#md407dad5a1" y="173.622047"/>
      </g>
     </g>
     <g id="text_3">
      <text style="font-family:Arial;font-size:10px;font-stretch:normal;font-style:normal;font-weight:normal;text-anchor:middle;" transform="rotate(-0, 163.97219, 184.27986)" x="163.97219" y="184.27986">6</text>
     </g>
    </g>
    <g id="xtick_4">
     <g id="line2d_7">
      <path clip-path="url(#p4178f1c781)" d="M 210.713687 173.622047 
L 210.713687 23.811024 
" style="fill:none;stroke:#b0b0b0;stroke-dasharray:0.6,0.99;stroke-dashoffset:0;stroke-opacity:0.5;stroke-width:0.6;"/>
     </g>
     <g id="line2d_8">
      <g>
       <use style="stroke:#000000;stroke-width:0.8;" x="210.713687" xlink:href="#md407dad5a1" y="173.622047"/>
      </g>
     </g>
     <g id="text_4">
      <text style="font-family:Arial;font-size:10px;font-stretch:normal;font-style:normal;font-weight:normal;text-anchor:middle;" transform="rotate(-0, 210.713687, 184.27986)" x="210.713687" y="184.27986">8</text>
     </g>
    </g>
    <g id="text_5">
     <!-- Taper diameter, $d$ (μm) -->
     <g transform="translate(93.625591 197.86736)">
      <text>
       <tspan style="font-family:Arial;font-size:10px;font-style:regular;font-weight:regular;" x="0 6.108398 11.669922 17.231445 22.792969 26.123047 28.901367 34.462891 36.68457 42.246094 50.576172 56.137695 58.916016 64.477539 67.807617 70.585938 79.711914 82.490234 85.820312 91.582031 99.912109" y="-0.40625">Taper diameter,  (μm)</tspan>
       <tspan style="font-family:DejaVu Sans;font-size:10px;font-style:oblique;font-weight:oblique;" x="73.364258" y="-0.40625">d</tspan>
      </text>
     </g>
    </g>
   </g>
   <g id="matplotlib.axis_2">
    <g id="ytick_1">
     <g id="line2d_9">
      <path clip-path="url(#p4178f1c781)" d="M 35.433071 140.859212 
L 255.11811 140.859212 
" style="fill:none;stroke:#b0b0b0;stroke-dasharray:0.6,0.99;stroke-dashoffset:0;stroke-opacity:0.5;stroke-width:0.6;"/>
     </g>
     <g id="line2d_10">
      <defs>
       <path d="M 0 0 
L 3.5 0 
" id="mb214c3a43e" style="stroke:#000000;stroke-width:0.8;"/>
      </defs>
      <g>
       <use style="stroke:#000000;stroke-width:0.8;" x="35.433071" xlink:href="#mb214c3a43e" y="140.859212"/>
      </g>
     </g>
     <g id="text_6">
      <text style="font-family:Arial;font-size:10px;font-stretch:normal;font-style:normal;font-weight:normal;text-anchor:end;" transform="rotate(-0, 31.933071, 144.438119)" x="31.933071" y="144.438119">20</text>
     </g>
    </g>
    <g id="ytick_2">
     <g id="line2d_11">
      <path clip-path="url(#p4178f1c781)" d="M 35.433071 107.620681 
L 255.11811 107.620681 
" style="fill:none;stroke:#b0b0b0;stroke-dasharray:0.6,0.99;stroke-dashoffset:0;stroke-opacity:0.5;stroke-width:0.6;"/>
     </g>
     <g id="line2d_12">
      <g>
       <use style="stroke:#000000;stroke-width:0.8;" x="35.433071" xlink:href="#mb214c3a43e" y="107.620681"/>
      </g>
     </g>
     <g id="text_7">
      <text style="font-family:Arial;font-size:10px;font-stretch:normal;font-style:normal;font-weight:normal;text-anchor:end;" transform="rotate(-0, 31.933071, 111.199587)" x="31.933071" y="111.199587">30</text>
     </g>
    </g>
    <g id="ytick_3">
     <g id="line2d_13">
      <path clip-path="url(#p4178f1c781)" d="M 35.433071 74.38215 
L 255.11811 74.38215 
" style="fill:none;stroke:#b0b0b0;stroke-dasharray:0.6,0.99;stroke-dashoffset:0;stroke-opacity:0.5;stroke-width:0.6;"/>
     </g>
     <g id="line2d_14">
      <g>
       <use style="stroke:#000000;stroke-width:0.8;" x="35.433071" xlink:href="#mb214c3a43e" y="74.38215"/>
      </g>
     </g>
     <g id="text_8">
      <text style="font-family:Arial;font-size:10px;font-stretch:normal;font-style:normal;font-weight:normal;text-anchor:end;" transform="rotate(-0, 31.933071, 77.961056)" x="31.933071" y="77.961056">40</text>
     </g>
    </g>
    <g id="ytick_4">
     <g id="line2d_15">
      <path clip-path="url(#p4178f1c781)" d="M 35.433071 41.143619 
L 255.11811 41.143619 
" style="fill:none;stroke:#b0b0b0;stroke-dasharray:0.6,0.99;stroke-dashoffset:0;stroke-opacity:0.5;stroke-width:0.6;"/>
     </g>
     <g id="line2d_16">
      <g>
       <use style="stroke:#000000;stroke-width:0.8;" x="35.433071" xlink:href="#mb214c3a43e" y="41.143619"/>
      </g>
     </g>
     <g id="text_9">
      <text style="font-family:Arial;font-size:10px;font-stretch:normal;font-style:normal;font-weight:normal;text-anchor:end;" transform="rotate(-0, 31.933071, 44.722525)" x="31.933071" y="44.722525">50</text>
     </g>
    </g>
    <g id="text_10">
     <!-- Total stretching distance, $x$ (mm) -->
     <g transform="translate(14.611196 171.716535)rotate(-90)">
      <text>
       <tspan style="font-family:Arial;font-size:10px;font-style:regular;font-weight:regular;" x="0 6.108398 11.669922 14.448242 20.009766 22.231445 25.009766 30.009766 32.788086 36.118164 41.679688 44.458008 49.458008 55.019531 57.241211 62.802734 68.364258 71.142578 76.704102 78.925781 83.925781 86.704102 92.265625 97.827148 102.827148 108.388672 111.166992 119.863281 122.641602 125.97168 134.301758 142.631836" y="-0.71875">Total stretching distance,  (mm)</tspan>
       <tspan style="font-family:DejaVu Sans;font-size:10px;font-style:oblique;font-weight:oblique;" x="113.945312" y="-0.71875">x</tspan>
      </text>
     </g>
    </g>
   </g>
   <g id="line2d_17">
    <path clip-path="url(#p4178f1c781)" d="M 35.433071 133.926174 
L 37.770146 136.350215 
L 40.107221 138.399711 
L 42.444296 140.175066 
L 44.78137 141.74104 
L 47.118445 143.141852 
L 49.45552 144.40904 
L 51.792595 145.565892 
L 54.12967 146.630093 
L 56.466745 147.615389 
L 58.80382 148.532678 
L 61.140895 149.390744 
L 63.47797 150.196773 
L 65.815044 150.956718 
L 68.152119 151.675564 
L 70.489194 152.35753 
L 72.826269 153.006215 
L 75.163344 153.624718 
L 77.500419 154.215722 
L 79.837494 154.78157 
L 82.174569 155.324315 
L 84.511643 155.845771 
L 86.848718 156.347544 
L 89.185793 156.831067 
L 91.522868 157.29762 
L 93.859943 157.748356 
L 96.197018 158.18431 
L 98.534093 158.606422 
L 100.871168 159.015544 
L 103.208243 159.412451 
L 105.545317 159.797852 
L 107.882392 160.172396 
L 110.219467 160.536677 
L 112.556542 160.891242 
L 114.893617 161.236597 
L 117.230692 161.573207 
L 119.567767 161.901506 
L 121.904842 162.221893 
L 124.241917 162.53474 
L 126.578991 162.840396 
L 128.916066 163.139181 
L 131.253141 163.4314 
L 133.590216 163.717334 
L 135.927291 163.997248 
L 138.264366 164.27139 
L 140.601441 164.539993 
L 142.938516 164.803277 
L 145.275591 165.061448 
L 147.612665 165.314702 
L 149.94974 165.563222 
L 152.286815 165.807181 
L 154.62389 166.046745 
L 156.960965 166.282068 
L 159.29804 166.513298 
L 161.635115 166.740576 
L 163.97219 166.964033 
L 166.309265 167.183797 
L 168.646339 167.399987 
L 170.983414 167.612719 
L 173.320489 167.822099 
L 175.657564 168.028234 
L 177.994639 168.231221 
L 180.331714 168.431156 
L 182.668789 168.628129 
L 185.005864 168.822226 
L 187.342939 169.01353 
L 189.680013 169.202121 
L 192.017088 169.388074 
L 194.354163 169.571461 
L 196.691238 169.752354 
L 199.028313 169.930819 
L 201.365388 170.10692 
L 203.702463 170.280718 
L 206.039538 170.452274 
L 208.376612 170.621645 
L 210.713687 170.788885 
L 213.050762 170.954048 
L 215.387837 171.117184 
L 217.724912 171.278342 
L 220.061987 171.43757 
L 222.399062 171.594914 
L 224.736137 171.750418 
L 227.073212 171.904124 
L 229.410286 172.056073 
L 231.747361 172.206305 
L 234.084436 172.354859 
L 236.421511 172.501771 
L 238.758586 172.647078 
L 241.095661 172.790813 
L 243.432736 172.933012 
L 245.769811 173.073705 
L 248.106886 173.212925 
L 250.44396 173.350703 
L 252.781035 173.487067 
L 255.11811 173.622047 
" style="fill:none;stroke:#1f77b4;stroke-linecap:square;stroke-width:1.5;"/>
   </g>
   <g id="line2d_18">
    <path clip-path="url(#p4178f1c781)" d="M 35.433071 97.221124 
L 37.770146 100.857185 
L 40.107221 103.93143 
L 42.444296 106.594462 
L 44.78137 108.943423 
L 47.118445 111.044641 
L 49.45552 112.945423 
L 51.792595 114.680701 
L 54.12967 116.277002 
L 56.466745 117.754946 
L 58.80382 119.130879 
L 61.140895 120.417979 
L 63.47797 121.627023 
L 65.815044 122.76694 
L 68.152119 123.845209 
L 70.489194 124.868157 
L 72.826269 125.841185 
L 75.163344 126.768939 
L 77.500419 127.655446 
L 79.837494 128.504218 
L 82.174569 129.318335 
L 84.511643 130.100519 
L 86.848718 130.853179 
L 89.185793 131.578463 
L 91.522868 132.278293 
L 93.859943 132.954396 
L 96.197018 133.608327 
L 98.534093 134.241495 
L 100.871168 134.855178 
L 103.208243 135.450539 
L 105.545317 136.028641 
L 107.882392 136.590456 
L 110.219467 137.136877 
L 112.556542 137.668725 
L 114.893617 138.186758 
L 117.230692 138.691674 
L 119.567767 139.184121 
L 121.904842 139.664702 
L 124.241917 140.133973 
L 126.578991 140.592456 
L 128.916066 141.040635 
L 131.253141 141.478963 
L 133.590216 141.907863 
L 135.927291 142.327734 
L 138.264366 142.738947 
L 140.601441 143.141852 
L 142.938516 143.536778 
L 145.275591 143.924035 
L 147.612665 144.303916 
L 149.94974 144.676695 
L 152.286815 145.042634 
L 154.62389 145.401979 
L 156.960965 145.754964 
L 159.29804 146.10181 
L 161.635115 146.442726 
L 163.97219 146.777912 
L 166.309265 147.107558 
L 168.646339 147.431844 
L 170.983414 147.75094 
L 173.320489 148.065012 
L 175.657564 148.374214 
L 177.994639 148.678695 
L 180.331714 148.978597 
L 182.668789 149.274056 
L 185.005864 149.565201 
L 187.342939 149.852158 
L 189.680013 150.135044 
L 192.017088 150.413973 
L 194.354163 150.689055 
L 196.691238 150.960394 
L 199.028313 151.228091 
L 201.365388 151.492242 
L 203.702463 151.75294 
L 206.039538 152.010274 
L 208.376612 152.26433 
L 210.713687 152.51519 
L 213.050762 152.762934 
L 215.387837 153.007638 
L 217.724912 153.249376 
L 220.061987 153.488218 
L 222.399062 153.724234 
L 224.736137 153.95749 
L 227.073212 154.188049 
L 229.410286 154.415972 
L 231.747361 154.641321 
L 234.084436 154.864151 
L 236.421511 155.084519 
L 238.758586 155.302479 
L 241.095661 155.518083 
L 243.432736 155.73138 
L 245.769811 155.94242 
L 248.106886 156.151251 
L 250.44396 156.357917 
L 252.781035 156.562464 
L 255.11811 156.764933 
" style="fill:none;stroke:#ff7f0e;stroke-linecap:square;stroke-width:1.5;"/>
   </g>
   <g id="line2d_19">
    <path clip-path="url(#p4178f1c781)" d="M 35.433071 60.516074 
L 37.770146 65.364154 
L 40.107221 69.463148 
L 42.444296 73.013858 
L 44.78137 76.145806 
L 47.118445 78.947429 
L 49.45552 81.481806 
L 51.792595 83.79551 
L 54.12967 85.923911 
L 56.466745 87.894504 
L 58.80382 89.729081 
L 61.140895 91.445213 
L 63.47797 93.057272 
L 65.815044 94.577162 
L 68.152119 96.014854 
L 70.489194 97.378785 
L 72.826269 98.676155 
L 75.163344 99.913161 
L 77.500419 101.09517 
L 79.837494 102.226865 
L 82.174569 103.312356 
L 84.511643 104.355267 
L 86.848718 105.358813 
L 89.185793 106.325859 
L 91.522868 107.258966 
L 93.859943 108.160436 
L 96.197018 109.032345 
L 98.534093 109.876569 
L 100.871168 110.694813 
L 103.208243 111.488628 
L 105.545317 112.25943 
L 107.882392 113.008517 
L 110.219467 113.737078 
L 112.556542 114.446209 
L 114.893617 115.136919 
L 117.230692 115.81014 
L 119.567767 116.466737 
L 121.904842 117.107511 
L 124.241917 117.733206 
L 126.578991 118.344516 
L 128.916066 118.942088 
L 131.253141 119.526525 
L 133.590216 120.098393 
L 135.927291 120.658221 
L 138.264366 121.206504 
L 140.601441 121.743711 
L 142.938516 122.270279 
L 145.275591 122.786622 
L 147.612665 123.293129 
L 149.94974 123.790169 
L 152.286815 124.278087 
L 154.62389 124.757214 
L 156.960965 125.227861 
L 159.29804 125.690321 
L 161.635115 126.144877 
L 163.97219 126.591792 
L 166.309265 127.031319 
L 168.646339 127.4637 
L 170.983414 127.889162 
L 173.320489 128.307924 
L 175.657564 128.720193 
L 177.994639 129.126168 
L 180.331714 129.526038 
L 182.668789 129.919983 
L 185.005864 130.308177 
L 187.342939 130.690785 
L 189.680013 131.067967 
L 192.017088 131.439872 
L 194.354163 131.806648 
L 196.691238 132.168434 
L 199.028313 132.525363 
L 201.365388 132.877564 
L 203.702463 133.225162 
L 206.039538 133.568274 
L 208.376612 133.907015 
L 210.713687 134.241495 
L 213.050762 134.57182 
L 215.387837 134.898092 
L 217.724912 135.220409 
L 220.061987 135.538866 
L 222.399062 135.853554 
L 224.736137 136.164561 
L 227.073212 136.471973 
L 229.410286 136.775872 
L 231.747361 137.076336 
L 234.084436 137.373443 
L 236.421511 137.667268 
L 238.758586 137.957881 
L 241.095661 138.245352 
L 243.432736 138.529748 
L 245.769811 138.811135 
L 248.106886 139.089576 
L 250.44396 139.365131 
L 252.781035 139.63786 
L 255.11811 139.90782 
" style="fill:none;stroke:#2ca02c;stroke-linecap:square;stroke-width:1.5;"/>
   </g>
   <g id="line2d_20">
    <path clip-path="url(#p4178f1c781)" d="M 35.433071 23.811024 
L 37.770146 29.871124 
L 40.107221 34.994867 
L 42.444296 39.433254 
L 44.78137 43.348189 
L 47.118445 46.850218 
L 49.45552 50.018188 
L 51.792595 52.910319 
L 54.12967 55.570821 
L 56.466745 58.034061 
L 58.80382 60.327282 
L 61.140895 62.472448 
L 63.47797 64.487522 
L 65.815044 66.387383 
L 68.152119 68.184498 
L 70.489194 69.889412 
L 72.826269 71.511125 
L 75.163344 73.057382 
L 77.500419 74.534894 
L 79.837494 75.949513 
L 82.174569 77.306376 
L 84.511643 78.610015 
L 86.848718 79.864448 
L 89.185793 81.073255 
L 91.522868 82.239639 
L 93.859943 83.366477 
L 96.197018 84.456362 
L 98.534093 85.511642 
L 100.871168 86.534447 
L 103.208243 87.526716 
L 105.545317 88.490219 
L 107.882392 89.426577 
L 110.219467 90.337279 
L 112.556542 91.223692 
L 114.893617 92.087079 
L 117.230692 92.928606 
L 119.567767 93.749352 
L 121.904842 94.55032 
L 124.241917 95.332439 
L 126.578991 96.096577 
L 128.916066 96.843541 
L 131.253141 97.574088 
L 133.590216 98.288923 
L 135.927291 98.988707 
L 138.264366 99.674062 
L 140.601441 100.34557 
L 142.938516 101.00378 
L 145.275591 101.649209 
L 147.612665 102.282343 
L 149.94974 102.903642 
L 152.286815 103.513541 
L 154.62389 104.112449 
L 156.960965 104.700757 
L 159.29804 105.278833 
L 161.635115 105.847027 
L 163.97219 106.405671 
L 166.309265 106.955081 
L 168.646339 107.495556 
L 170.983414 108.027384 
L 173.320489 108.550837 
L 175.657564 109.066173 
L 177.994639 109.573641 
L 180.331714 110.073478 
L 182.668789 110.56591 
L 185.005864 111.051153 
L 187.342939 111.529413 
L 189.680013 112.00089 
L 192.017088 112.465772 
L 194.354163 112.924241 
L 196.691238 113.376473 
L 199.028313 113.822635 
L 201.365388 114.262887 
L 203.702463 114.697383 
L 206.039538 115.126274 
L 208.376612 115.5497 
L 210.713687 115.9678 
L 213.050762 116.380707 
L 215.387837 116.788547 
L 217.724912 117.191443 
L 220.061987 117.589514 
L 222.399062 117.982874 
L 224.736137 118.371633 
L 227.073212 118.755898 
L 229.410286 119.135771 
L 231.747361 119.511351 
L 234.084436 119.882736 
L 236.421511 120.250016 
L 238.758586 120.613282 
L 241.095661 120.972621 
L 243.432736 121.328117 
L 245.769811 121.679851 
L 248.106886 122.027901 
L 250.44396 122.372345 
L 252.781035 122.713256 
L 255.11811 123.050706 
" style="fill:none;stroke:#d62728;stroke-linecap:square;stroke-width:1.5;"/>
   </g>
   <g id="patch_3">
    <path d="M 35.433071 173.622047 
L 35.433071 23.811024 
" style="fill:none;stroke:#000000;stroke-linecap:square;stroke-linejoin:miter;stroke-width:0.8;"/>
   </g>
   <g id="patch_4">
    <path d="M 255.11811 173.622047 
L 255.11811 23.811024 
" style="fill:none;stroke:#000000;stroke-linecap:square;stroke-linejoin:miter;stroke-width:0.8;"/>
   </g>
   <g id="patch_5">
    <path d="M 35.433071 173.622047 
L 255.11811 173.622047 
" style="fill:none;stroke:#000000;stroke-linecap:square;stroke-linejoin:miter;stroke-width:0.8;"/>
   </g>
   <g id="patch_6">
    <path d="M 35.433071 23.811024 
L 255.11811 23.811024 
" style="fill:none;stroke:#000000;stroke-linecap:square;stroke-linejoin:miter;stroke-width:0.8;"/>
   </g>
   <g id="legend_1">
    <g id="patch_7">
     <path d="M 191.119673 88.392274 
L 248.11811 88.392274 
Q 250.11811 88.392274 250.11811 86.392274 
L 250.11811 30.811024 
Q 250.11811 28.811024 248.11811 28.811024 
L 191.119673 28.811024 
Q 189.119673 28.811024 189.119673 30.811024 
L 189.119673 86.392274 
Q 189.119673 88.392274 191.119673 88.392274 
z
" style="fill:#ffffff;opacity:0.8;stroke:#cccccc;stroke-linejoin:miter;"/>
    </g>
    <g id="line2d_21">
     <path d="M 193.119673 36.468836 
L 213.119673 36.468836 
" style="fill:none;stroke:#1f77b4;stroke-linecap:square;stroke-width:1.5;"/>
    </g>
    <g id="line2d_22"/>
    <g id="text_11">
     <text style="font-family:Arial;font-size:10px;font-stretch:normal;font-style:normal;font-weight:normal;text-anchor:start;" transform="rotate(-0, 221.119673, 39.968836)" x="221.119673" y="39.968836">2 mm</text>
    </g>
    <g id="line2d_23">
     <path d="M 193.119673 50.614149 
L 213.119673 50.614149 
" style="fill:none;stroke:#ff7f0e;stroke-linecap:square;stroke-width:1.5;"/>
    </g>
    <g id="line2d_24"/>
    <g id="text_12">
     <text style="font-family:Arial;font-size:10px;font-stretch:normal;font-style:normal;font-weight:normal;text-anchor:start;" transform="rotate(-0, 221.119673, 54.114149)" x="221.119673" y="54.114149">3 mm</text>
    </g>
    <g id="line2d_25">
     <path d="M 193.119673 64.759461 
L 213.119673 64.759461 
" style="fill:none;stroke:#2ca02c;stroke-linecap:square;stroke-width:1.5;"/>
    </g>
    <g id="line2d_26"/>
    <g id="text_13">
     <text style="font-family:Arial;font-size:10px;font-stretch:normal;font-style:normal;font-weight:normal;text-anchor:start;" transform="rotate(-0, 221.119673, 68.259461)" x="221.119673" y="68.259461">4 mm</text>
    </g>
    <g id="line2d_27">
     <path d="M 193.119673 78.904774 
L 213.119673 78.904774 
" style="fill:none;stroke:#d62728;stroke-linecap:square;stroke-width:1.5;"/>
    </g>
    <g id="line2d_28"/>
    <g id="text_14">
     <text style="font-family:Arial;font-size:10px;font-stretch:normal;font-style:normal;font-weight:normal;text-anchor:start;" transform="rotate(-0, 221.119673, 82.404774)" x="221.119673" y="82.404774">5 mm</text>
    </g>
   </g>
  </g>
 </g>
 <defs>
  <clipPath id="p4178f1c781">
   <rect height="149.811024" width="219.685039" x="35.433071" y="23.811024"/>
  </clipPath>
 </defs>
</svg>
